<svg width="200" height="221" viewBox="0 0 200 221" fill="none" xmlns="http://www.w3.org/2000/svg">
<g clip-path="url(#clip0_199_107)">
<path d="M153.051 90.2929C150.318 70.5358 133.157 45.1367 100 45.1367C66.843 45.1367 49.6816 70.5358 46.9488 90.2929C44.2648 109.717 49.3192 120.923 58.948 136.713C69.4877 153.982 73.4744 177.765 73.4744 177.765H100H126.526C126.526 177.765 130.512 153.982 141.052 136.713C150.691 120.923 155.735 109.707 153.051 90.2929Z" fill="#EBBC3B"/>
<path d="M99.9999 176.746C88.3533 176.746 78.0683 176.197 72.054 175.355L77.3532 211.872C77.5099 212.969 87.648 213.851 99.9999 213.851C112.352 213.851 122.49 212.969 122.647 211.872L127.946 175.355C121.941 176.197 111.646 176.746 99.9999 176.746Z" fill="#1B2536"/>
<path d="M100 220.12C107.979 220.12 114.448 215.506 114.448 209.815C114.448 204.124 107.979 199.51 100 199.51C92.0206 199.51 85.552 204.124 85.552 209.815C85.552 215.506 92.0206 220.12 100 220.12Z" fill="#1B2536"/>
<path d="M114.105 131.815L116.583 114.84H116.564C116.672 114.184 116.779 113.508 116.887 112.812C118.729 100.216 117.896 87.7951 114.634 87.7951C112.606 87.7951 110.432 92.8593 108.923 99.9021C108.385 92.8593 106.915 87.7951 104.888 87.7951C102.86 87.7951 101.038 92.8593 100.01 99.9021C98.9813 92.8593 97.1593 87.7951 95.1317 87.7951C93.1041 87.7951 91.6348 92.8593 91.0961 99.9021C89.5778 92.8593 87.4032 87.7951 85.3854 87.7951C82.1236 87.7951 81.291 100.216 83.1325 112.812C83.2304 113.508 83.3382 114.174 83.4557 114.84L85.9046 131.815" stroke="white" stroke-width="2" stroke-miterlimit="10" stroke-linecap="round" stroke-linejoin="round"/>
<path d="M75.3745 33.6272L65.3638 6.11224" stroke="#D4780E" stroke-width="3" stroke-miterlimit="10"/>
<path d="M53.7174 46.126L34.9006 23.6948" stroke="#D4780E" stroke-width="3" stroke-miterlimit="10"/>
<path d="M37.6432 65.2855L12.2832 50.6416" stroke="#D4780E" stroke-width="3" stroke-miterlimit="10"/>
<path d="M29.0919 88.7844L0.254639 83.7007" stroke="#D4780E" stroke-width="3" stroke-miterlimit="10"/>
<path d="M100 0V29.2781" stroke="#D4780E" stroke-width="3" stroke-miterlimit="10"/>
<path d="M134.646 6.11224L124.625 33.6272" stroke="#D4780E" stroke-width="3" stroke-miterlimit="10"/>
<path d="M165.109 23.6948L146.283 46.126" stroke="#D4780E" stroke-width="3" stroke-miterlimit="10"/>
<path d="M187.717 50.6416L162.357 65.2855" stroke="#D4780E" stroke-width="3" stroke-miterlimit="10"/>
<path d="M199.745 83.7007L170.908 88.7844" stroke="#D4780E" stroke-width="3" stroke-miterlimit="10"/>
</g>
<defs>
<clipPath id="clip0_199_107">
<rect width="200" height="220.12" fill="white"/>
</clipPath>
</defs>
</svg>
