<svg width="250" height="193" viewBox="0 0 250 193" fill="none" xmlns="http://www.w3.org/2000/svg">
<g clip-path="url(#clip0_199_264)">
<path d="M0.142107 157.674C0.142107 157.674 -1.42385 165.53 5.83198 167.572C15.755 170.364 74.0054 177.698 59.8545 183.273C51.8666 186.419 63.9328 190.692 102.841 192.265C141.749 193.839 208.513 187.673 186.061 178.552C163.609 169.431 255.328 176.646 249.756 157.673H0.142107V157.674Z" fill="#CFDDF9"/>
<path d="M44.1948 157.24C44.1948 157.24 14.8075 85.1613 35.9554 69.1113C50.0915 58.383 65.0743 82.0326 82.9576 69.5219C98.8793 58.384 76.6821 30.3251 103.247 22.9844C131.169 15.2692 154.044 77.7506 177.473 69.1113C205.903 58.628 234.182 79.9086 209.743 157.378L44.1948 157.24Z" fill="#D4E8FF"/>
<path d="M21.2007 151.06C20.7074 149.628 20.2194 148.143 19.7504 146.648L20.9069 146.322C21.3726 147.807 21.8585 149.282 22.3476 150.706L21.2007 151.06ZM228.108 149.21L226.91 149.07C227.109 147.544 227.298 146.009 227.472 144.505L228.672 144.629C228.498 146.138 228.308 147.68 228.108 149.21ZM18.4179 142.203C17.9956 140.725 17.5861 139.221 17.201 137.729L18.3733 137.457C18.7563 138.939 19.1637 140.435 19.5838 141.903L18.4179 142.203ZM229.165 140.04L227.964 139.933C228.117 138.402 228.258 136.861 228.384 135.355L229.587 135.445C229.461 136.957 229.319 138.503 229.165 140.04ZM16.0976 133.23C15.7496 131.724 15.4175 130.202 15.1119 128.706L16.297 128.488C16.6005 129.976 16.9304 131.489 17.2763 132.985L16.0976 133.23ZM229.933 130.843L228.729 130.771C228.831 129.241 228.921 127.697 228.995 126.183L230.2 126.236C230.126 127.756 230.036 129.306 229.933 130.843ZM14.2473 124.159C13.9789 122.635 13.7306 121.098 13.5089 119.591L14.7035 119.433C14.9231 120.93 15.1703 122.456 15.4366 123.97L14.2473 124.159ZM230.385 121.625L229.179 121.592C229.225 120.055 229.258 118.51 229.275 116.999L230.481 117.011C230.465 118.529 230.432 120.081 230.385 121.625ZM12.9041 115.006C12.7238 113.466 12.5678 111.919 12.4384 110.405L13.6415 110.312C13.7698 111.815 13.9247 113.352 14.103 114.88L12.9041 115.006ZM229.281 112.407C229.267 110.868 229.236 109.323 229.189 107.815L230.396 107.781C230.442 109.297 230.473 110.849 230.488 112.396L229.281 112.407ZM12.1222 105.792C12.0426 104.244 11.9896 102.689 11.9641 101.171L13.1704 101.153C13.1948 102.657 13.2479 104.199 13.3264 105.735L12.1222 105.792ZM228.994 103.228C228.911 101.692 228.809 100.15 228.692 98.6471L229.895 98.5622C230.014 100.075 230.115 101.625 230.199 103.17L228.994 103.228ZM13.1821 96.5697L11.9758 96.5464C12.0097 94.9942 12.0745 93.4389 12.1689 91.9249L13.3731 91.9917C13.2797 93.4919 13.216 95.0324 13.1821 96.5697ZM228.274 94.0744C228.112 92.5381 227.93 91.0051 227.732 89.5144L228.928 89.3712C229.129 90.8703 229.312 92.4151 229.475 93.9609L228.274 94.0744ZM13.7561 87.4275L12.5551 87.313C12.7195 85.7661 12.919 84.2203 13.1492 82.719L14.3438 82.8835C14.1157 84.3688 13.9173 85.8977 13.7561 87.4275ZM227.055 84.9736C226.803 83.4469 226.528 81.9265 226.236 80.455L227.422 80.2439C227.717 81.7281 227.995 83.2601 228.247 84.7985L227.055 84.9736ZM84.3495 84.8123C82.6732 84.5619 81.4605 83.8383 79.78 82.5896L80.5428 81.7037C82.0144 82.7954 83.0774 83.45 84.4779 83.676L84.3495 84.8123ZM88.536 82.091L87.4613 81.5711C88.014 80.5462 88.5021 79.1235 88.9126 77.3432L90.0914 77.5872C89.6532 79.4895 89.1439 80.9632 88.536 82.091ZM76.2396 79.3092C75.2784 78.2949 74.2514 77.1268 73.0992 75.7391L74.0477 75.0314C75.1829 76.399 76.194 77.548 77.1372 78.5442L76.2396 79.3092ZM15.1491 78.3713L13.964 78.1538C14.277 76.6271 14.6303 75.1057 15.0154 73.6299L16.1867 73.9047C15.8069 75.3603 15.4578 76.8637 15.1491 78.3713ZM225.261 75.965C224.903 74.4543 224.518 72.9573 224.115 71.5144L225.282 71.2215C225.688 72.6782 226.077 74.1901 226.438 75.7147L225.261 75.965ZM90.9041 72.9838L89.7073 72.8374C89.893 71.4719 90.0585 69.9771 90.2155 68.2679L91.4175 68.3665C91.2595 70.0927 91.0908 71.6035 90.9041 72.9838ZM70.1434 72.0544C69.1631 70.7993 68.1456 69.472 67.2682 68.3262L68.2454 67.6546C69.1206 68.7973 70.136 70.1224 71.1131 71.3733L70.1434 72.0544ZM158.483 71.961C157.543 71.961 156.621 71.6947 155.743 71.1706L156.386 70.203C157.706 70.9924 159.004 70.9945 160.406 70.3643L160.925 71.3966C160.097 71.7711 159.275 71.961 158.483 71.961ZM17.4704 69.4964L16.3161 69.1622C16.7957 67.6758 17.3219 66.199 17.88 64.7699L19.012 65.1667C18.4614 66.5746 17.9436 68.0313 17.4704 69.4964ZM164.871 68.4068L163.984 67.6313C164.899 66.6923 165.88 65.5338 166.983 64.0898L167.96 64.7604C166.83 66.2404 165.82 67.434 164.871 68.4068ZM152.312 67.6196C151.531 66.478 150.758 65.1338 149.946 63.5095L151.037 63.0204C151.825 64.598 152.573 65.8998 153.324 66.9979L152.312 67.6196ZM222.782 67.1135C222.296 65.6314 221.777 64.1736 221.241 62.7785L222.374 62.387C222.917 63.7991 223.442 65.276 223.934 66.7751L222.782 67.1135ZM64.409 64.5991C63.3045 63.1689 62.3847 61.9955 61.5136 60.9049L62.4759 60.2142C63.3512 61.3101 64.2753 62.4889 65.3829 63.9233L64.409 64.5991ZM91.7793 63.7482L90.5751 63.6739C90.6664 62.334 90.7598 60.8285 90.8595 59.0705L92.0647 59.132C91.965 60.8943 91.8716 62.405 91.7793 63.7482ZM20.8199 60.9335L19.7165 60.472C20.3785 59.0503 21.0851 57.6541 21.8352 56.2887L22.9046 56.817C22.1662 58.1602 21.4723 59.5341 20.8199 60.9335ZM170.726 60.9335L169.718 60.3054C170.575 59.0694 171.461 57.7613 172.357 56.4383L173.373 57.0568C172.473 58.3819 171.586 59.6922 170.726 60.9335ZM148.004 59.2413C147.458 57.9416 146.894 56.5242 146.278 54.9073L147.413 54.519C148.025 56.1242 148.585 57.53 149.126 58.8169L148.004 59.2413ZM219.466 58.5283C218.817 57.0961 218.131 55.7052 217.427 54.3938L218.502 53.875C219.218 55.2086 219.917 56.6229 220.575 58.0774L219.466 58.5283ZM58.5345 57.2807C57.4396 55.9927 56.42 54.8458 55.4185 53.7763L56.3213 53.0178C57.3356 54.1021 58.3669 55.2617 59.4745 56.5645L58.5345 57.2807ZM92.3162 54.519L91.1109 54.4617C91.1926 52.934 91.2733 51.4051 91.3592 49.8498L92.5644 49.9102C92.4785 51.4645 92.3968 52.9923 92.3162 54.519ZM176.018 53.1939L175.011 52.5637C176.019 51.1176 176.921 49.8667 177.767 48.74L178.75 49.4031C177.911 50.5192 177.017 51.7584 176.018 53.1939ZM25.2981 52.8703L24.2807 52.2549C25.2292 50.8471 26.2063 49.576 27.1866 48.4769L28.1086 49.2153C27.1622 50.2763 26.2169 51.5059 25.2981 52.8703ZM144.667 50.5436C144.113 49.0063 143.571 47.469 143.112 46.1672L144.257 45.8054C144.714 47.1051 145.256 48.6403 145.809 50.1744L144.667 50.5436ZM52.102 50.4641C50.8691 49.3257 49.6565 48.3209 48.4979 47.4764L49.2342 46.5704C50.4299 47.4425 51.6776 48.4769 52.9443 49.645L52.102 50.4641ZM215.083 50.4153C214.218 49.0785 213.312 47.8138 212.388 46.6563L213.35 45.9667C214.298 47.1539 215.226 48.4493 216.111 49.8179L215.083 50.4153ZM31.493 46.1036L30.761 45.1943C32.2017 44.1525 33.7019 43.4013 35.218 42.961L35.5713 44.0549C34.1921 44.4548 32.8192 45.1445 31.493 46.1036ZM181.66 45.7534L180.722 45.0331C181.854 43.7101 182.926 42.5706 184 41.5521L184.854 42.3605C183.81 43.3515 182.765 44.4612 181.66 45.7534ZM92.835 45.3047L91.6308 45.2368C91.7348 43.5743 91.8387 42.0645 91.948 40.6216L93.1511 40.7033C93.0419 42.1409 92.939 43.6464 92.835 45.3047ZM44.5077 45.0649C43.0022 44.3551 41.5211 43.901 40.1058 43.7175L40.2692 42.5844C41.815 42.7849 43.4213 43.2751 45.0445 44.0411L44.5077 45.0649ZM209.285 43.2157C208.123 42.0879 206.92 41.0916 205.71 40.2567L206.421 39.3326C207.686 40.2057 208.94 41.2434 210.149 42.4178L209.285 43.2157ZM141.573 41.7919C140.972 40.0901 140.478 38.7034 140.016 37.4261L141.158 37.0558C141.621 38.3363 142.116 39.7262 142.718 41.4301L141.573 41.7919ZM188.466 39.4419L187.774 38.505C189.258 37.5215 190.756 36.7927 192.229 36.3396L192.601 37.4271C191.243 37.8441 189.851 38.5231 188.466 39.4419ZM201.631 38.0403C200.136 37.443 198.624 37.0728 197.135 36.9412L197.247 35.8028C198.859 35.946 200.492 36.3439 202.1 36.9868L201.631 38.0403ZM93.5363 36.1115L92.3342 36.0107C92.4849 34.4066 92.6483 32.8565 92.8201 31.4052L94.019 31.5335C93.8492 32.9754 93.6859 34.5159 93.5363 36.1115ZM138.411 33.0762C137.828 31.5335 137.279 30.1235 136.732 28.7655L137.858 28.3571C138.409 29.7225 138.961 31.1399 139.546 32.69L138.411 33.0762ZM94.6343 26.9725L93.4397 26.8091C93.6837 25.2082 93.9522 23.6677 94.2375 22.2322L95.4237 22.4433C95.1415 23.8629 94.8762 25.3864 94.6343 26.9725ZM134.939 24.4952C134.291 23.0173 133.637 21.6031 132.996 20.2917L134.091 19.8111C134.738 21.1362 135.398 22.5643 136.053 24.056L134.939 24.4952ZM96.4475 17.9682L95.2773 17.6913C95.6985 16.0946 96.1621 14.5902 96.6565 13.2205L97.7981 13.5908C97.3154 14.9297 96.8602 16.4023 96.4475 17.9682ZM130.853 16.188C130.059 14.7716 129.249 13.4412 128.444 12.2349L129.463 11.6238C130.284 12.8545 131.111 14.2093 131.919 15.6511L130.853 16.188ZM99.6102 9.40001L98.528 8.89394C99.3206 7.37254 100.199 6.02725 101.139 4.89522L102.086 5.60287C101.198 6.67231 100.366 7.94969 99.6102 9.40001ZM125.678 8.52579C124.623 7.27281 123.536 6.16306 122.443 5.2273L123.252 4.37854C124.393 5.35567 125.526 6.51105 126.621 7.81177L125.678 8.52579ZM105.454 2.63858L104.804 1.67524C106.233 0.808443 107.808 0.244018 109.484 0L109.668 1.12991C108.158 1.35059 106.741 1.85772 105.454 2.63858ZM118.636 2.63858C117.23 1.92032 115.766 1.4291 114.284 1.17978L114.495 0.0541084C116.104 0.325711 117.69 0.857247 119.208 1.6328L118.636 2.63858Z" fill="#DCE6FF"/>
<path d="M236.482 125.233C226.469 123.827 227.376 144.967 213.103 144.967C200.054 144.967 193.07 97.7346 178.751 107.342C121.181 145.961 165.974 80.2427 127.263 78.9579C109.759 78.3776 98.0953 96.0668 93.7942 127.387C87.558 155.703 73.0993 105.791 58.2185 110.432C48.7612 113.382 49.8444 144.967 36.7947 144.967C22.5218 144.967 23.4618 127.19 13.4496 128.597C2.66821 130.112 0.14209 157.674 0.14209 157.674H249.756C249.756 157.674 247.263 126.747 236.482 125.233Z" fill="#EEF7FF"/>
<path d="M226.888 147.422C217.676 146.822 219.179 152.248 206.049 152.248C194.043 152.248 194.373 140.087 186.34 137.501C171.545 132.741 159.348 156.833 153.612 144.741C142.718 112.659 110.944 96.5697 96.2864 144.741C90.5509 156.832 77.1373 135.257 63.5582 137.501C55.2001 138.881 55.8547 152.248 43.849 152.248C30.7187 152.248 32.221 146.822 23.0098 147.422C13.0921 148.069 10.1299 157.674 10.1299 157.674H239.768C239.768 157.674 236.806 148.068 226.888 147.422Z" fill="#DCE6FF"/>
<path d="M144.41 106.945L143.721 116.05H93.9014L93.8589 141.334L33.005 141.377L32.8289 164.459L35.7348 167.365H212.543V108.986L209.813 106.256L144.41 106.945Z" fill="#23659B"/>
<path d="M30.2742 138.646L35.7349 144.108V167.365L30.2742 161.904V138.646Z" fill="#1D3F70"/>
<path d="M91.1707 113.319L96.6324 118.781V144.108L91.1707 138.646V113.319Z" fill="#1D3F70"/>
<path d="M140.991 103.525L146.451 108.986V118.781L140.991 113.319V103.525Z" fill="#1D3F70"/>
<path d="M207.083 103.525L212.543 108.986H146.451L140.991 103.525H207.083Z" fill="#3A72AA"/>
<path d="M91.1707 113.319L96.6324 118.781H146.451L140.991 113.319H91.1707Z" fill="#3A72AA"/>
<path d="M30.2742 138.646L35.7349 144.108H96.6323L91.1705 138.646H30.2742Z" fill="#3A72AA"/>
<path d="M152.802 57.2753C153.04 57.6403 152.335 58.0689 152.152 58.3745C152.818 58.3702 153.413 58.2323 153.416 58.2344C154.154 57.862 154.869 57.4514 155.566 57.008C156.798 56.9984 156.423 59.8067 153.945 60.6003C153.054 60.8857 152.185 61.2401 150.727 61.0152C150.25 60.9409 150.116 59.5956 150.409 59.2222C150.921 58.8211 152.447 56.9326 152.802 57.2753Z" fill="#F99370"/>
<path d="M97.5309 71.5558C97.6911 71.96 98.473 71.5717 98.8507 71.6927C98.4624 72.2338 97.9574 72.6083 97.9574 72.6125C97.2274 72.9987 96.4784 73.3435 95.7124 73.6554C94.992 74.6548 97.499 75.9747 99.5806 74.4119C100.33 73.8496 101.121 73.3467 101.781 72.0279C101.997 71.5961 101.322 70.6455 100.846 70.6455C100.104 70.6444 97.4566 71.0688 97.5309 71.5558Z" fill="#E57D61"/>
<path d="M130.234 57.5756C133.667 59.1765 137.236 61.0088 141.069 61.2518C143.31 61.2157 145.562 60.6746 147.717 60.0327C148.613 59.7633 149.51 59.4598 150.391 59.1426C151.602 58.6715 152.501 60.456 151.417 61.151C148.415 63.1975 144.982 64.7667 141.358 65.2738C138.704 65.5369 136.115 64.9375 133.626 64.181C131.687 63.5689 129.811 62.8273 127.999 61.9159C125.127 60.4136 127.331 56.1083 130.234 57.5756Z" fill="#F99370"/>
<path d="M151.132 61.342C151.132 61.342 150.861 61.5764 150.373 61.9446C148.625 63.2559 144.096 66.252 139.255 66.2022C136.912 66.1788 134.837 65.9231 133.163 65.6133C132.913 65.5667 132.673 65.52 132.44 65.4712C131.979 65.3757 131.555 65.2781 131.17 65.1826C130.831 65.0988 130.525 65.0171 130.252 64.9386C129.28 64.6638 128.74 64.4527 128.74 64.4527C129.746 59.9309 129.057 57.2393 128.449 55.9067C128.132 55.2118 127.837 54.8861 127.818 54.8659C127.818 54.8649 127.818 54.8649 127.818 54.8649C127.821 54.8659 127.823 54.867 127.826 54.868C127.831 54.8702 127.835 54.8712 127.839 54.8744C127.912 54.9031 128.166 55.006 128.559 55.1725C129.71 55.6606 132.054 56.6992 134.605 58.0785C137.296 59.5341 141.405 61.5319 149.223 59.4853C149.507 59.4121 149.795 59.3336 150.091 59.2508C150.092 59.2487 149.937 60.4677 151.132 61.342Z" fill="#3A72AA"/>
<path d="M151.62 105.988L144.707 106.237C144.391 106.249 144.133 105.993 144.137 105.677C144.139 105.524 144.151 105.344 144.179 105.139C144.258 104.56 144.278 103.974 144.247 103.391C144.232 103.112 144.205 102.833 144.166 102.555L143.493 97.723C143.449 97.4005 143.693 97.1098 144.018 97.0981L147.07 96.9878C147.401 96.9761 147.667 97.2562 147.637 97.5851L147.242 102.024C147.155 102.995 147.811 103.874 148.766 104.076C149.447 104.219 150.136 104.296 150.63 104.404C150.694 104.419 150.758 104.432 150.819 104.448H150.82C151.345 104.578 151.781 104.756 152.043 105.111C152.304 105.468 152.062 105.972 151.62 105.988Z" fill="#F99370"/>
<path d="M143.929 105.548C143.96 105.886 144.143 106.266 144.534 106.244L151.705 105.985C152.075 105.972 152.325 105.591 152.182 105.25C151.875 104.479 150.844 103.349 147.449 103.28C146.964 103.345 145.86 103.551 144.247 103.392C144.247 103.391 143.727 104.275 143.929 105.548Z" fill="#EB5648"/>
<path d="M152.182 105.25L143.93 105.549C143.97 105.799 144.048 106.041 144.183 106.257L151.707 105.986C152.072 105.973 152.321 105.604 152.188 105.263C152.186 105.258 152.184 105.254 152.182 105.25Z" fill="#CE3932"/>
<path d="M149.91 100.071C149.946 101.006 149.95 101.559 149.95 101.559C149.95 101.559 146.509 103.063 142.963 102.109C142.698 102.039 142.433 101.954 142.168 101.853C142.07 101.455 141.975 101.005 141.883 100.512C141.099 96.3353 140.447 89.2514 138.004 87.3905C135.469 85.5709 130.776 85.8192 127.877 85.6802C127.795 85.676 127.716 85.6728 127.637 85.6675C123.294 85.415 119.895 82.2884 117.197 77.5056C116.799 76.8011 121.859 76.1338 121.859 76.1338L133.562 75.1577C136.574 75.9089 141.892 76.9847 145.319 80.7001C148.987 84.6787 149.751 95.9926 149.91 100.071Z" fill="#1D3F70"/>
<path d="M142.963 102.109C142.698 102.039 142.432 101.954 142.168 101.853C141.226 98.0742 140.735 89.4709 138.004 87.3904C135.469 85.5709 130.776 85.8191 127.877 85.6802L128.82 83.6346C128.82 83.6346 136.776 83.7259 139.422 87.2578C142.068 90.7918 142.963 102.109 142.963 102.109Z" fill="#103663"/>
<path d="M126.899 117.87L120.024 117.099C119.71 117.064 119.492 116.773 119.542 116.462C119.567 116.311 119.605 116.135 119.663 115.935C119.827 115.374 119.934 114.798 119.988 114.217C120.014 113.938 120.076 111.138 120.078 110.857C120.078 110.857 123.622 110.502 123.544 110.823L123.291 114.598C123.611 115.45 123.442 115.22 124.358 115.56C125.01 115.802 125.68 115.978 126.153 116.158C126.214 116.181 126.275 116.206 126.333 116.23H126.334C126.834 116.435 127.241 116.677 127.446 117.066C127.653 117.457 127.338 117.919 126.899 117.87Z" fill="#F99370"/>
<path d="M119.358 116.303C119.339 116.642 119.463 117.045 119.854 117.08L126.985 117.88C127.353 117.921 127.657 117.582 127.564 117.223C127.374 116.415 126.521 115.146 123.173 114.578C122.684 114.571 121.562 114.612 119.989 114.217C119.988 114.217 119.344 115.015 119.358 116.303Z" fill="#EB5648"/>
<path d="M127.563 117.223L119.357 116.303C119.359 116.557 119.401 116.807 119.502 117.041L126.984 117.88C127.348 117.92 127.648 117.593 127.565 117.236C127.565 117.232 127.564 117.228 127.563 117.223Z" fill="#CE3932"/>
<path d="M127.816 54.8618C128.139 53.4061 128.131 51.2513 128.016 50.3601C127.825 48.5958 125.017 48.9777 125.295 50.7209C125.389 50.6742 125.345 53.8305 125.058 54.6772C123.345 55.0007 127.886 57.8632 129.19 57.2616C130.012 56.8818 127.816 54.8618 127.816 54.8618Z" fill="#F99370"/>
<path d="M125.283 50.5755C125.284 50.5956 125.284 50.6168 125.286 50.637C125.288 50.6656 125.291 50.6932 125.295 50.7208C125.363 50.6858 125.361 52.4289 125.231 53.6808C126.353 54.3386 127.69 54.241 127.937 54.2166C128.128 52.8989 128.093 51.2364 128.05 50.6115C128.033 50.464 128.019 50.3781 128.017 50.3601C128.012 50.3198 128.005 50.2805 127.996 50.2423C127.906 49.836 127.64 49.5071 127.289 49.3246C127.288 49.3246 127.288 49.3246 127.288 49.3246C127.045 49.1983 126.764 49.1442 126.473 49.1835C126.184 49.2227 125.929 49.3479 125.73 49.5304C125.721 49.5378 125.713 49.5453 125.705 49.5527C125.434 49.8116 125.272 50.1797 125.283 50.5755Z" fill="#E57D61"/>
<path d="M123.439 48.1746C123.439 48.1746 123.464 46.6924 123.926 45.6697L124.774 46.0845L123.439 48.1746Z" fill="#8E4A35"/>
<path d="M128.869 75.1842C129.151 82.5652 128.335 92.9233 127.741 97.7474C127.16 102.462 126.155 108.738 125.698 111.534H125.697C125.548 112.445 125.457 112.986 125.457 112.986C125.457 112.986 121.882 114.694 118.487 112.557C118.487 112.557 118.505 112.02 118.528 111.114C118.603 108.22 118.725 101.559 118.452 96.5931C118.185 91.7477 114.923 83.3991 117.195 77.5077L128.869 75.1842Z" fill="#1D3F70"/>
<path d="M123.417 52.5117C124.739 53.7997 126.813 53.9928 128.309 53.1377C128.42 53.0687 128.525 52.9934 128.626 52.9095H128.627C133.356 48.1438 126.927 40.3511 123.997 47.156C123.008 49.0732 121.283 50.1002 123.417 52.5117Z" fill="#F99370"/>
<path d="M125.454 48.6487C125.406 48.5554 125.443 48.4419 125.537 48.3941C125.63 48.3464 125.745 48.3835 125.792 48.4769C125.84 48.5702 125.803 48.6838 125.71 48.7315C125.615 48.7792 125.501 48.7421 125.454 48.6487Z" fill="#C16256"/>
<path d="M123.857 48.3825C123.81 48.2892 123.847 48.1746 123.94 48.1279C124.033 48.0812 124.148 48.1173 124.196 48.2107C124.243 48.304 124.206 48.4175 124.113 48.4653C124.02 48.513 123.905 48.4759 123.857 48.3825Z" fill="#C16256"/>
<path d="M124.354 50.0238C124.465 50.0365 124.579 50.0301 124.674 49.9994C124.712 49.9877 124.733 49.9463 124.721 49.9092C124.709 49.871 124.668 49.8508 124.631 49.8625C124.39 49.94 124.049 49.8201 124.002 49.7108C123.985 49.6726 124.037 49.6344 124.083 49.61C124.49 49.3893 124.762 48.6191 124.774 48.5862C124.787 48.5491 124.768 48.5077 124.729 48.4949C124.69 48.4812 124.651 48.5013 124.638 48.5395C124.636 48.5469 124.373 49.2896 124.015 49.4838C123.82 49.5898 123.849 49.7172 123.871 49.7681C123.925 49.8996 124.135 49.9983 124.354 50.0238Z" fill="#C16256"/>
<path d="M124.218 46.686C125.247 46.1428 127.113 46.6362 128.029 46.6287C128.029 46.6287 127.835 48.1958 129.417 49.3108C129.551 50.7516 129.788 51.3797 128.309 53.1377C128.42 53.0687 128.525 52.9934 128.626 52.9096H128.627C133.182 48.3655 127.245 40.6163 124.218 46.686Z" fill="#E57D61"/>
<path d="M123.438 43.5647C124.028 42.3998 125.78 41.7664 127.293 43.2051C128.458 44.3127 129.715 44.3042 129.69 45.4712C132.027 46.5311 130.869 49.1039 130.869 49.1039L129.698 48.966C128.36 47.8838 128.399 46.2935 128.399 46.2935C128.101 46.3083 127.787 46.2956 127.509 46.2245C126.648 46.0049 125.372 45.8988 124.401 46.2563C123.429 46.6139 122.779 44.8665 123.438 43.5647Z" fill="#8E4A35"/>
<path d="M131.037 50.0471C130.91 50.6486 130.415 51.0529 129.931 50.9521C129.446 50.8502 129.157 50.2805 129.283 49.6789C129.409 49.0774 129.905 48.6732 130.388 48.774C130.872 48.8758 131.163 49.4455 131.037 50.0471Z" fill="#F99370"/>
<path d="M129.887 49.2514C129.906 49.2439 130.349 49.0721 130.598 49.3033C130.662 49.3617 130.705 49.4413 130.729 49.5389C130.729 49.5389 130.729 49.5389 130.729 49.5399C130.731 49.5495 130.734 49.5569 130.736 49.5665C130.772 49.7479 130.745 49.9898 130.654 50.2911C130.643 50.325 130.61 50.3452 130.576 50.342C130.572 50.342 130.568 50.3409 130.563 50.3399C130.525 50.3282 130.504 50.2879 130.516 50.2508C130.59 50.0067 130.619 49.8073 130.604 49.6577C130.19 49.732 129.982 50.1956 129.981 50.2009C129.968 50.2306 129.938 50.2476 129.907 50.2444C129.9 50.2433 129.894 50.2412 129.887 50.2391C129.851 50.2242 129.834 50.1818 129.848 50.1447C129.858 50.1213 130.084 49.6036 130.57 49.5134C130.553 49.4731 130.531 49.437 130.502 49.4105C130.318 49.2407 129.943 49.385 129.94 49.3861C129.902 49.3999 129.861 49.3818 129.846 49.3458C129.831 49.3076 129.849 49.2662 129.887 49.2514Z" fill="#C16256"/>
<path d="M133.561 75.1598C133.561 75.1598 129.067 79.4906 117.196 77.5066C117.196 77.5066 117.354 73.1663 117.542 68.9628C117.558 68.601 117.575 68.2424 117.591 67.8848C117.591 67.8838 117.591 67.8838 117.591 67.8827C117.743 64.6076 117.907 61.6571 118.02 61.2369C119.15 57.0112 122.679 55.4102 124.267 54.8914C124.753 54.7333 125.057 54.676 125.057 54.676C125.057 55.7232 126.87 56.4096 127.496 55.9555C128.018 55.5778 127.827 54.9009 127.817 54.8628C127.817 54.8617 127.817 54.8617 127.817 54.8617C127.82 54.8628 127.822 54.8638 127.825 54.8649C127.829 54.867 127.834 54.8681 127.838 54.8712C128.089 54.9795 128.328 55.1036 128.558 55.2436C130.16 56.2271 131.215 58.0021 131.794 60.5473C132 61.4491 132.145 62.4475 132.235 63.5424C132.25 63.7323 132.264 63.9264 132.276 64.1227C132.301 64.5333 132.359 64.9842 132.438 65.4627C132.439 65.4669 132.439 65.4691 132.439 65.4691C132.933 68.4779 134.243 72.623 133.561 75.1598Z" fill="#3A72AA"/>
<path d="M126.429 48.3846C126.444 48.3867 126.46 48.3835 126.475 48.3772C126.516 48.357 126.534 48.3071 126.514 48.2647C126.501 48.2392 126.206 47.6356 125.429 47.5029C125.383 47.4955 125.339 47.5263 125.331 47.5719C125.324 47.6175 125.354 47.661 125.4 47.6695C126.09 47.7873 126.352 48.3156 126.362 48.3379C126.375 48.3644 126.4 48.3814 126.429 48.3846Z" fill="#C16256"/>
<path d="M123.796 47.7873C123.821 47.7905 123.849 47.781 123.868 47.7597C124.084 47.521 124.546 47.5433 124.551 47.5433C124.598 47.5454 124.637 47.5104 124.64 47.4637C124.642 47.4171 124.607 47.3767 124.561 47.3746C124.538 47.3736 124.015 47.3481 123.744 47.6462C123.712 47.6802 123.715 47.7343 123.749 47.765C123.762 47.7788 123.779 47.7863 123.796 47.7873Z" fill="#C16256"/>
<path d="M117.013 60.6407C114.332 63.3408 111.636 64.9832 109.196 66.4611C107.279 67.6218 105.349 68.8546 103.274 69.7193C102.41 70.0768 101.522 70.4089 100.639 70.7197C99.4024 71.1208 99.8342 73.0719 101.114 72.9244C104.733 72.6125 108.564 71.8422 111.672 69.9102C114.169 68.3591 117.224 66.7231 119.042 64.8622C120.75 63.1127 122.405 60.3129 123.233 58.4615C124.511 55.4803 119.639 56.66 117.013 60.6407Z" fill="#E57D61"/>
<path d="M125.058 54.677C125.058 54.677 124.965 55.076 124.737 55.7879C124.199 57.461 122.91 60.8634 120.313 64.8887C119.587 66.0133 118.659 67.0106 117.592 67.8837C113.479 71.2554 107.305 72.8055 102.741 72.8617C102.451 72.8649 102.16 72.8607 101.87 72.849C101.87 72.849 102.191 71.3859 101.246 70.5011C101.246 70.5011 101.511 70.3717 101.943 70.1499C103.505 69.3457 107.27 67.331 108.849 65.7693C110.8 63.8383 116.076 55.2054 124.217 54.7014C124.267 54.6983 124.317 54.6951 124.368 54.6919C124.596 54.6802 124.826 54.676 125.058 54.677Z" fill="#3A72AA"/>
<path d="M149.91 100.071C149.946 101.006 149.95 101.559 149.95 101.559C149.95 101.559 146.509 103.063 142.963 102.109C142.698 102.039 142.433 101.954 142.168 101.853C142.07 101.455 141.975 101.005 141.883 100.512C141.883 100.513 145.946 101.612 149.91 100.071Z" fill="#103663"/>
<path d="M125.698 111.534C125.549 112.445 125.458 112.986 125.458 112.986C125.458 112.986 121.883 114.694 118.488 112.557C118.488 112.557 118.506 112.02 118.529 111.114C118.528 111.114 121.019 112.939 125.698 111.534Z" fill="#103663"/>
<path d="M101.943 70.15C101.51 70.3728 101.245 70.5012 101.245 70.5012C102.19 71.386 101.869 72.848 101.869 72.848C102.159 72.8607 102.45 72.865 102.741 72.8607C102.746 72.8289 102.961 71.0094 101.943 70.15Z" fill="#23659B"/>
<path d="M151.132 61.342C151.132 61.342 150.861 61.5775 150.371 61.9436H150.37C148.972 60.8996 149.219 59.5172 149.219 59.5172L149.222 59.4832C149.506 59.4089 149.795 59.3315 150.091 59.2477C150.092 59.2487 149.936 60.4678 151.132 61.342Z" fill="#23659B"/>
<path d="M124.345 50.8047C124.149 50.8047 124.012 50.7686 124.009 50.7675C123.973 50.758 123.952 50.7198 123.961 50.6837C123.971 50.6476 124.008 50.6264 124.045 50.636C124.081 50.6455 124.933 50.8662 125.373 50.08C125.391 50.0471 125.434 50.0355 125.467 50.0535C125.5 50.0715 125.511 50.114 125.493 50.1469C125.182 50.7007 124.678 50.8047 124.345 50.8047Z" fill="#C16256"/>
<path d="M121.993 62.0603C121.933 62.2046 120.083 66.5248 117.543 68.9639C117.559 68.6021 117.576 68.2435 117.592 67.886C117.593 67.8849 117.593 67.8839 117.593 67.8839C117.593 67.8839 120.244 65.101 121.993 62.0603Z" fill="#23659B"/>
<path d="M133.163 65.6134C132.912 65.5667 132.673 65.52 132.44 65.4712C132.44 65.4712 132.44 65.4691 132.439 65.4649C132.434 65.3895 132.371 64.6554 132.235 63.5488V63.5445C132.133 62.7159 131.988 61.6783 131.795 60.5516C131.795 60.5505 131.795 60.5505 131.795 60.5495L131.792 60.5336C131.792 60.5325 132.447 62.7011 133.163 65.6134Z" fill="#23659B"/>
<path d="M128.559 55.1705C128.559 55.1949 128.559 55.2193 128.558 55.2447C128.555 55.4569 128.528 55.6882 128.449 55.9057C128.272 56.4033 127.836 56.8298 126.85 56.7895C125.765 56.746 125.117 56.2728 124.736 55.7869C124.467 55.4453 124.331 55.0994 124.267 54.8925C124.232 54.7811 124.219 54.71 124.217 54.7005C124.217 54.6994 124.217 54.6994 124.217 54.6994L124.368 54.6909C124.595 54.6792 124.826 54.675 125.057 54.6761C125.057 55.7232 126.87 56.4097 127.496 55.9556C128.018 55.5779 127.827 54.901 127.817 54.8628C127.816 54.8628 127.817 54.8617 127.817 54.8617C127.82 54.8628 127.822 54.8639 127.825 54.8649C127.877 54.8883 128.138 54.9922 128.559 55.1705Z" fill="#23659B"/>
<path d="M98.8952 71.6332C98.8952 71.6332 96.9707 71.5186 95.7972 72.4915C94.6238 73.4644 93.8589 75.0855 93.8589 75.0855C93.8589 75.0855 95.1808 75.3677 95.2997 76.0245C95.2997 76.0245 96.8444 74.7365 97.3823 73.8686C97.9202 73.0018 98.8952 71.6332 98.8952 71.6332Z" fill="#F99370"/>
<path d="M73.6871 70.6179C73.6871 70.6179 70.7992 67.7257 66.827 72.2273C62.8548 76.7289 65.3342 76.7226 59.0767 79.0174C53.8717 80.926 52.3376 86.7676 59.221 88.4705C65.8021 90.099 69.9875 84.8229 73.9258 85.0924C77.864 85.3629 78.3436 76.9284 77.0895 74.8012C75.8355 72.6729 73.6871 70.6179 73.6871 70.6179Z" fill="#C92828"/>
<path d="M75.2626 88.2795C79.4343 88.7378 83.8913 88.2074 87.5378 85.973C91.5174 83.3047 94.8159 79.4015 96.3023 74.8108C96.5081 74.2145 95.8896 73.6013 95.2976 73.8039C95.2785 73.8262 94.4743 74.0278 94.4764 74.0755C94.2196 74.449 93.948 74.8118 93.6637 75.1662C89.9939 79.6508 84.7029 83.3546 78.6672 82.892C77.7664 82.874 76.8625 82.805 75.9702 82.6904C72.3079 82.2968 71.6076 87.7416 75.2626 88.2795Z" fill="#F99370"/>
<path d="M87.1294 86.1555C87.1294 86.1555 87.1103 86.5554 86.8695 87.0042C86.8695 87.0042 86.8695 87.0042 86.8684 87.0042C85.957 88.4259 82.4336 89.2375 79.1638 89.2046C78.819 89.2014 78.4774 89.1887 78.1421 89.1675C77.7092 89.1388 77.287 89.0943 76.8827 89.0317C76.6769 87.4456 75.4441 83.6017 75.2415 82.0284C76.3501 81.8957 78.263 82.3265 80.1218 82.457C82.022 82.735 83.5667 81.3281 84.8462 81.9668C84.8473 81.9668 84.72 84.9757 87.1294 86.1555Z" fill="#9358E0"/>
<path d="M48.4524 122.577C48.4524 122.577 50.6476 122.248 52.4289 121.742L53.0739 125.646L48.9171 125.436C48.9161 125.436 47.591 124.379 48.4524 122.577Z" fill="#F99370"/>
<path d="M71.2236 138.584L71.5684 136.031L74.9953 136.063C74.9953 136.063 74.5433 137.179 74.12 138.616C74.119 138.616 72.64 139.87 71.2236 138.584Z" fill="#F99370"/>
<path d="M73.6946 70.6593C77.4949 69.5325 77.3824 75.7953 77.0122 77.0239L73.6946 70.6593Z" fill="#C92828"/>
<path d="M46.4271 122.535C46.2011 122.601 45.9868 122.701 45.8032 122.849L46.9225 129.746C46.9766 130.081 47.3458 130.27 47.644 130.107C47.6472 130.105 47.6514 130.103 47.6546 130.101C48.3357 129.727 49.2683 128.632 48.916 125.436C48.916 125.436 48.4185 124.407 48.4524 122.577C48.4524 122.577 47.3448 122.269 46.4271 122.535Z" fill="#1D3F70"/>
<path d="M47.6546 130.101L46.4271 122.535C46.2011 122.601 45.9868 122.701 45.8032 122.849L46.9225 129.746C46.9766 130.081 47.3458 130.27 47.644 130.107L47.6546 130.101Z" fill="#395B96"/>
<path d="M70.8352 140.574C70.8607 140.808 70.9233 141.036 71.0379 141.242L78.021 141.318C78.3605 141.323 78.6099 140.991 78.5006 140.669C78.4995 140.665 78.4985 140.662 78.4963 140.657C78.2438 139.921 77.3251 138.816 74.1178 138.616C74.1178 138.616 73.0187 138.93 71.2225 138.584C71.2235 138.584 70.7302 139.623 70.8352 140.574Z" fill="#1D3F70"/>
<path d="M78.4986 140.658L70.8364 140.574C70.8619 140.808 70.9245 141.036 71.0391 141.242L78.0222 141.319C78.3617 141.323 78.6111 140.991 78.5018 140.669L78.4986 140.658Z" fill="#395B96"/>
<path d="M50.6177 126.014C50.9392 126.081 51.2978 126.141 51.6882 126.19C51.6882 126.19 51.6893 126.19 51.6903 126.191C56.6577 126.83 66.8311 126.04 70.4797 122.125V122.124C70.9773 121.604 71.4388 121.061 71.8632 120.497C75.0832 116.234 76.2863 110.813 76.6874 105.393C76.8274 103.515 76.8698 101.638 76.8677 99.8077C76.1611 95.6594 72.3502 94.4457 69.3456 95.46C66.9913 96.2525 65.1315 98.4137 65.6471 101.6V101.587C66.55 104.169 66.7325 106.571 66.3293 108.76C65.1591 115.102 59.0639 119.64 51.2967 121.471C50.8766 121.57 50.4522 121.661 50.0236 121.744C50.0246 121.742 49.5037 124.17 50.6177 126.014Z" fill="#E8C0A6"/>
<path d="M70.8364 98.6503L76.3067 107.538L76.4934 107.435C76.5783 106.703 76.6472 105.955 76.7003 105.19C76.7374 104.686 76.7661 104.174 76.7905 103.654C76.8425 102.538 76.8669 101.39 76.869 100.209L74.9953 99.6815L70.8364 98.6503Z" fill="#D1A68F"/>
<path d="M69.7488 122.801C69.7488 122.801 71.1567 121.617 71.8633 120.496C73.8642 117.327 73.9682 117.081 75.0801 113.422L73.7942 106.322L66.2954 105.846C66.3559 107.379 66.6222 108.046 65.9792 110.17C65.9803 110.17 69.9207 113.534 69.7488 122.801Z" fill="#D1A68F"/>
<path d="M64.2711 106.452C64.9639 107.264 65.7013 107.984 66.3293 108.758C69.4071 112.545 71.1227 116.452 71.8622 120.496C72.7247 125.198 72.2685 130.086 71.1068 135.191C71.0155 135.593 70.9201 135.992 70.8203 136.396C70.8203 136.396 73.669 137.351 75.2562 136.642C75.4249 136.285 75.5893 135.932 75.7495 135.581V135.58C80.4919 125.221 81.8913 117.147 76.6863 105.392C75.6625 103.079 74.3841 100.624 72.8234 97.9787C71.7296 96.6408 70.5286 95.8334 69.3456 95.4578C64.392 93.8845 59.3907 100.732 64.2711 106.452Z" fill="#E8C0A6"/>
<path d="M76.816 99.1743C76.8679 99.8926 76.8679 100.241 76.8679 100.241C67.6398 102.094 62.6088 99.5064 62.6088 99.5064C62.5536 99.5255 62.56 99.1987 62.6162 98.6301C62.7297 97.4895 63.0438 95.3772 63.4671 93.1365C63.5424 92.7375 63.622 92.3354 63.7037 91.9323C64.2766 89.1155 64.9949 86.3347 65.6802 85.2271C67.0648 81.3302 71.7934 80.6798 74.7917 81.9116C75.2595 82.0835 77.5501 86.0981 78.0307 87.6609C78.8413 90.2974 76.0712 92.293 76.416 95.6233C76.6473 97.2402 76.7618 98.4147 76.816 99.1743Z" fill="#9358E0"/>
<path d="M71.3541 81.9966C71.4771 82.1154 71.5726 82.2194 71.4654 82.4029C71.2766 82.7286 71.4453 83.5615 71.9047 83.7238C72.0076 83.7609 72.1275 83.7631 72.2612 83.7174C72.9826 83.4702 73.0049 83.7853 73.5576 84.3699C74.1093 84.9566 74.6738 84.6415 74.8881 84.145C75.1024 83.6495 75.5756 83.9646 75.7092 83.379C75.7421 83.2347 75.7368 83.0957 75.7092 82.9673C75.6392 82.6289 75.2435 82.0295 75.2435 82.0295C75.2435 82.0295 74.8265 81.8979 74.7915 81.9128C73.686 81.2879 72.3577 81.1754 71.1037 81.3664C71.1037 81.3664 71.1037 81.3664 71.1026 81.3664C71.0347 81.6995 71.2119 81.8586 71.3541 81.9966Z" fill="#7640CC"/>
<path d="M75.061 79.9171L74.7841 81.9138C74.7841 81.9138 75.3793 83.3779 74.0753 83.2655C72.2187 83.1063 71.8696 81.2868 71.8696 81.2868L72.1625 79.6699L75.061 79.9171Z" fill="#F99370"/>
<path d="M72.1625 79.6709L72.032 80.3945C73.1948 81.1 74.6504 81.048 74.9072 81.0268L75.061 79.9181L72.1625 79.6709Z" fill="#E57D61"/>
<path d="M77.2391 79.1786C76.2588 80.2852 74.6769 80.6661 73.3846 80.456C72.8478 80.3775 72.3396 80.1876 71.9089 79.8651H71.9078C70.1498 78.4063 69.4835 75.321 70.3758 73.2925C71.667 70.3176 75.3697 70.5934 76.3553 73.6999C76.5463 74.1667 76.889 74.6739 77.3038 75.0441C78.4008 76.0446 78.4857 77.6954 77.2391 79.1786Z" fill="#F99370"/>
<path d="M76.3373 77.5352L74.6048 76.7576C74.6048 76.7576 74.5507 77.6838 75.2318 77.9002C75.8822 78.1071 76.3373 77.5352 76.3373 77.5352Z" fill="#F9F8F3"/>
<path d="M70.936 77.5649C70.936 77.5649 71.0898 78.8137 72.2102 80.0635C72.1051 80.0041 72.0054 79.9383 71.9089 79.8661H71.9078C70.1498 78.4073 69.4835 75.3221 70.3758 73.2936C71.0325 71.5525 73.2043 70.5064 74.9538 71.734C74.9538 71.734 75.8471 74.3651 71.0813 76.6578L70.936 77.5649Z" fill="#E57D61"/>
<path d="M74.94 75.3136C74.9835 75.2149 74.94 75.0993 74.8413 75.0558C74.7426 75.0123 74.627 75.0558 74.5835 75.1545C74.54 75.2531 74.5835 75.3688 74.6822 75.4123C74.7808 75.4558 74.8965 75.4123 74.94 75.3136Z" fill="#C16256"/>
<path d="M74.4509 71.3956C74.4509 71.3956 75.2116 74.1689 70.9084 76.2123L69.8284 76.8711C69.8284 76.8711 68.8788 75.0038 69.6215 72.8056C70.3652 70.6073 73.8409 69.7437 74.4509 71.3956Z" fill="#C92828"/>
<path d="M76.5655 74.9551C76.609 74.8564 76.5655 74.7408 76.4668 74.6973C76.3681 74.6538 76.2525 74.6973 76.209 74.7959C76.1655 74.8946 76.209 75.0102 76.3077 75.0537C76.4063 75.0972 76.5209 75.0537 76.5655 74.9551Z" fill="#C16256"/>
<path d="M76.349 77.6084C76.3352 77.6105 76.3203 77.6095 76.3065 77.6031L74.574 76.8254C74.5369 76.8084 74.5199 76.765 74.5369 76.7278C74.5538 76.6907 74.5973 76.6737 74.6345 76.6907L76.367 77.4684C76.4041 77.4853 76.4211 77.5288 76.4041 77.566C76.3935 77.5882 76.3723 77.6042 76.349 77.6084Z" fill="#C16256"/>
<path d="M76.1442 76.6695C76.0307 76.6886 75.914 76.6886 75.8132 76.6621C75.7739 76.6515 75.7506 76.6112 75.7612 76.5719C75.7718 76.5326 75.8121 76.5093 75.8514 76.5199C76.1028 76.5867 76.4466 76.4446 76.489 76.33C76.5039 76.2897 76.4487 76.2536 76.3999 76.2303C75.9702 76.0244 75.6498 75.2468 75.636 75.2139C75.6201 75.1757 75.6392 75.1333 75.6763 75.1173C75.7156 75.1014 75.757 75.1205 75.7729 75.1577C75.7761 75.1651 76.0859 75.9152 76.4636 76.0966C76.6694 76.1953 76.6471 76.3279 76.628 76.3809C76.5771 76.5188 76.366 76.6313 76.1442 76.6695Z" fill="#C16256"/>
<path d="M69.2799 77.0493C69.4422 77.6615 69.9727 78.0519 70.465 77.9214C70.9573 77.7909 71.2246 77.1893 71.0623 76.5772C70.9 75.965 70.3695 75.5746 69.8772 75.7051C69.3849 75.8356 69.1176 76.4371 69.2799 77.0493Z" fill="#F99370"/>
<path d="M70.4183 76.1687C68.7356 75.6573 70.1223 78.611 69.7032 76.6185C70.1339 76.6716 70.3705 77.1426 70.3726 77.1479C70.7419 77.3294 70.2729 76.522 69.7308 76.4721C69.8273 76.0414 70.6729 76.4965 70.4183 76.1687Z" fill="#C16256"/>
<path d="M70.1203 77.6838C70.1245 77.775 70.2031 77.8461 70.2943 77.8408C70.3855 77.8366 70.4566 77.7581 70.4513 77.6668C70.4471 77.5756 70.3686 77.5045 70.2773 77.5098C70.1861 77.514 70.1161 77.5926 70.1203 77.6838Z" fill="#F4D4BE"/>
<path d="M56.3831 105.896C55.9736 105.94 56.0266 104.964 55.7815 104.68C55.4388 105.245 55.2564 105.915 55.2521 105.916C55.1842 106.733 55.1598 107.551 55.1725 108.371C54.5593 109.455 54.571 106.32 54.5158 106.012C54.5116 106.011 54.5073 106.011 54.5041 106.01C54.2559 106.831 54.0522 107.668 53.9196 108.516C53.0432 109.489 53.8177 106.081 53.857 105.759C53.8548 105.758 53.8538 105.757 53.8517 105.755C53.4867 106.489 53.2119 107.266 53.0231 108.063C52.0534 108.965 53.1079 105.565 53.2522 105.269C53.2501 105.266 53.248 105.264 53.2459 105.261C52.8756 105.795 52.5743 106.376 52.3037 106.968C51.2799 107.679 52.6104 104.866 52.7716 104.61C52.7939 104.377 53.422 103.06 54.1519 101.99C54.4225 101.594 56.0224 101.664 56.1868 102.107C56.3407 102.521 56.5072 103.899 56.5316 104.115C56.6483 104.53 56.8022 105.631 56.3831 105.896Z" fill="#F99370"/>
<path d="M84.0143 82.5918C84.2371 83.3461 83.5337 83.3758 83.9305 84.1408C84.3273 84.9057 85.0837 84.5407 85.349 85.9348C85.61 87.3088 86.8322 87.0138 86.8693 87.0032C86.8704 87.0032 86.8704 87.0032 86.8704 87.0032C87.1112 86.5555 87.2247 86.1587 87.2247 86.1587C84.8143 84.9789 84.8471 81.9319 84.8471 81.9319C84.5522 81.6974 84.1745 81.7207 83.7363 81.8247C83.8244 82.0475 83.9358 82.3255 84.0143 82.5918Z" fill="#7640CC"/>
<path d="M74.0096 74.85C74.0191 74.8479 74.0297 74.8447 74.0393 74.8405C74.644 74.5254 74.9867 73.979 75.0015 73.9567C75.0302 73.91 75.0164 73.8485 74.9697 73.8198C74.923 73.7912 74.8615 73.805 74.8328 73.8517C74.8297 73.857 74.504 74.3747 73.948 74.6643C73.8992 74.6898 73.8801 74.7492 73.9056 74.798C73.9247 74.8373 73.9682 74.8564 74.0096 74.85Z" fill="#C16256"/>
<path d="M76.4498 74.0872C76.4954 74.0797 76.5304 74.0405 76.5326 73.9927C76.5347 73.9376 76.4912 73.892 76.436 73.8909C76.4318 73.8909 76.0403 73.876 75.6997 73.6203C75.6562 73.5875 75.5936 73.597 75.5607 73.6405C75.5278 73.684 75.5363 73.7466 75.5809 73.7795C75.9745 74.0744 76.4127 74.0893 76.4307 74.0904C76.4371 74.0882 76.4434 74.0882 76.4498 74.0872Z" fill="#C16256"/>
<path d="M71.108 135.192C71.0167 135.593 70.9213 135.993 70.8215 136.396C70.8215 136.396 73.6161 137.405 75.2574 136.642C75.4261 136.285 75.5905 135.932 75.7507 135.581C75.7507 135.581 74.3418 136.362 71.108 135.192Z" fill="#D1A68F"/>
<path d="M50.6177 126.014C50.9392 126.081 51.2978 126.14 51.6882 126.19C51.6882 126.19 50.7164 124.602 51.2967 121.469C50.8766 121.568 50.4522 121.659 50.0236 121.742C50.0246 121.742 49.5037 124.17 50.6177 126.014Z" fill="#D1A68F"/>
<path d="M69.1769 87.3872C63.7374 89.9387 61.3949 92.8351 58.6597 98.0359C57.7951 99.6348 56.9887 101.285 56.2758 102.959C55.7644 104.235 53.7401 103.555 54.0987 102.233C55.0833 98.2354 56.6376 94.4223 58.6523 90.8215C60.6257 87.5039 63.643 84.8992 66.9956 83.05C69.909 81.5594 72.1168 85.9315 69.1769 87.3872Z" fill="#F99370"/>
<path d="M68.584 88.3495C66.7241 88.8142 65.1497 91.2703 63.9487 92.1074C63.5328 92.397 63.1487 92.5827 62.8241 92.7015C62.2119 92.9254 61.813 92.9116 61.813 92.9116C61.116 90.9594 58.8593 90.482 58.8593 90.482C58.4944 90.1213 58.3235 89.6905 58.3151 89.2067C58.2811 87.4106 60.6608 85.3194 63.554 83.1127C67.0944 80.4125 70.8046 81.4077 70.8046 81.4077C72.4766 84.5704 70.4428 87.8848 68.584 88.3495Z" fill="#9358E0"/>
<path d="M70.2762 86.3591C70.0959 86.6573 67.2971 91.4082 63.4055 93.4654C63.4808 93.0665 63.5445 92.7185 63.6262 92.3153C63.6262 92.3142 67.8148 89.9377 70.2762 86.3591Z" fill="#7640CC"/>
<path d="M79.1647 89.2046C78.8199 89.2014 78.4782 89.1887 78.143 89.1675C78.0687 87.1209 77.169 85.6727 77.1404 85.6282C78.2183 86.8154 78.8474 88.2858 79.1647 89.2046Z" fill="#7640CC"/>
<path d="M62.823 92.7016C62.2108 92.9254 61.8119 92.9116 61.8119 92.9116C61.1149 90.9595 58.8582 90.4821 58.8582 90.4821C58.4933 90.1213 58.3225 89.6906 58.314 89.2068C58.9983 89.1569 59.1617 90.132 59.7887 90.202C60.4157 90.2709 60.7414 89.9877 61.2295 90.3144C61.7175 90.6433 61.4618 91.3871 61.8565 91.8284C62.2511 92.2698 62.8188 91.9557 62.823 92.7016Z" fill="#7640CC"/>
<path d="M76.8679 100.241C67.6398 102.094 62.6088 99.5065 62.6088 99.5065C62.5536 99.5255 62.56 99.1988 62.6162 98.6301C63.0045 98.5601 63.4968 98.5908 63.9954 98.941C65.0882 99.707 64.5726 99.9871 65.9105 99.9393C67.2494 99.8926 66.738 99.359 67.574 99.707C68.41 100.056 68.5268 100.683 69.3172 100.497C70.1076 100.312 69.9919 99.9871 70.5839 100.079C71.177 100.173 71.6184 100.751 72.4077 100.531C73.1981 100.312 73.2978 99.7335 73.8527 99.7664C74.4065 99.8003 74.8946 100.288 75.3826 100.195C75.8112 100.113 76.1019 99.3335 76.816 99.1754C76.8679 99.8926 76.8679 100.241 76.8679 100.241Z" fill="#7640CC"/>
<path d="M152.075 58.4328C152.075 58.4328 153.095 56.7969 154.569 56.4033C156.041 56.0086 158.058 56.3619 158.058 56.3619C158.058 56.3619 157.485 56.8488 157.701 58.4445C157.701 58.4445 155.792 58.557 154.773 58.4933C153.756 58.4297 152.075 58.4328 152.075 58.4328Z" fill="#E57D61"/>
<path d="M172.482 34.5127C172.482 34.5127 171.03 34.4787 170.232 36.0256C169.285 37.8632 170.489 39.2541 170.13 40.4901C169.77 41.7261 169.15 42.6045 169.637 43.8437C170.123 45.0819 169.318 45.8564 169.736 46.8749C170.154 47.8934 170.781 47.8594 170.753 49.227C170.726 50.5946 171.925 51.7595 173.028 50.9478C174.131 50.1373 174.743 51.9144 176.505 50.8057C178.267 49.697 178.34 48.391 180.385 48.0228C182.43 47.6547 181.619 44.8145 183.352 43.7578C185.086 42.7011 184.936 41.0375 183.485 39.9034C182.034 38.7703 181.092 38.4891 180.037 35.7561C178.848 32.6804 174.417 31.3511 172.482 34.5127Z" fill="#662948"/>
<path d="M178.489 48.9564C177.015 52.9562 174.609 57.3358 170.272 58.7235C166.136 59.7261 161.872 59.2721 157.769 58.4466C156.265 58.3893 156.169 56.33 157.711 56.3406C161.398 56.5072 165.276 56.5083 168.811 55.3996C171.938 54.241 173.343 50.6136 174.445 47.6844C175.294 44.9789 179.346 46.2425 178.489 48.9564Z" fill="#E57D61"/>
<path d="M177.552 54.6059C177.344 55.0961 177.103 55.5555 176.838 55.9841C176.407 56.678 175.91 57.2912 175.361 57.8312C175.258 57.9341 175.153 58.0328 175.045 58.1294C172.797 60.1632 169.828 61.0417 167.358 61.0915C164.614 61.1456 160.786 60.2449 159.018 59.3272C158.471 59.0428 158.121 58.7574 158.062 58.4975C157.815 57.4015 158.372 56.3724 158.372 56.3724C158.552 56.1581 158.943 55.9852 159.462 55.842C161.308 55.3327 164.778 55.199 166.181 54.885C167.978 54.4818 170.766 53.4283 172.41 49.8338C173.393 47.6801 174.426 46.6181 175.096 46.1141C175.544 45.7767 175.855 45.694 175.855 45.694C175.855 45.694 176.979 47.0435 177.651 49.0402C177.702 49.1909 177.75 49.3447 177.794 49.5028C178.214 50.9924 178.33 52.779 177.552 54.6059Z" fill="#EB5648"/>
<path d="M176.838 55.9831C176.327 56.8074 175.719 57.5193 175.045 58.1283C174.519 57.4588 173.504 55.964 173.366 54.2314C173.178 51.8751 174.904 49.0933 174.904 49.0933L176.838 55.9831Z" fill="#CE3932"/>
<path d="M202.204 104.488L207.716 99.9605C207.568 99.5891 206.203 98.4804 205.852 97.9447C205.685 97.7346 203.94 95.7082 203.791 95.4833L201.735 93.5205L199.306 95.5162L203.165 99.1722C203.623 99.6061 203.708 100.302 203.369 100.835C202.67 102.057 201.363 102.819 201.356 104.15C201.404 104.558 201.888 104.747 202.204 104.488Z" fill="#F99370"/>
<path d="M207.448 99.2921C207.579 99.4969 207.677 99.7207 207.717 99.9605L202.151 104.532C201.881 104.755 201.466 104.649 201.346 104.32C201.067 103.55 201.09 102.081 203.545 99.8406C203.545 99.8406 204.632 99.3833 205.853 97.9447C205.853 97.9447 206.92 98.4603 207.448 99.2921Z" fill="#1D3F70"/>
<path d="M201.342 104.308L207.449 99.2921C207.579 99.4969 207.677 99.7207 207.717 99.9605L202.151 104.532C201.877 104.757 201.454 104.645 201.342 104.308Z" fill="#395B96"/>
<path d="M175.352 44.4251L175.854 45.694C175.854 45.694 176.527 53.2193 177.811 53.2172C180.084 53.2151 178.582 45.1232 178.701 44.6776C178.701 44.6776 178.287 43.8331 178.146 43.4236L175.352 44.4251Z" fill="#F99370"/>
<path d="M174.813 106.189L181.945 106.201C182.067 105.821 181.719 104.096 181.79 103.461C181.795 103.192 181.882 101.727 181.909 101.46L181.426 97.4291L178.281 97.4238L178.935 102.7C179.012 103.326 178.634 103.917 178.034 104.112C176.717 104.61 175.223 104.368 174.372 105.39C174.151 105.734 174.403 106.189 174.813 106.189Z" fill="#F99370"/>
<path d="M182.164 105.515C182.134 105.755 182.067 105.99 181.946 106.201L174.744 106.189C174.394 106.188 174.141 105.844 174.257 105.514C174.531 104.742 175.482 103.623 178.803 103.455C178.803 103.455 179.932 103.793 181.789 103.46C181.789 103.461 182.285 104.537 182.164 105.515Z" fill="#1D3F70"/>
<path d="M174.261 105.502L182.164 105.515C182.134 105.755 182.067 105.99 181.946 106.201L174.744 106.189C174.388 106.189 174.135 105.834 174.261 105.502Z" fill="#395B96"/>
<path d="M177.325 40.4646C177.337 40.5155 177.346 40.5675 177.354 40.6184C177.273 40.6004 177.76 42.4168 178.244 43.6867C177.258 44.684 175.85 44.9758 175.587 45.0182C174.947 43.4215 174.523 41.8799 174.408 40.8699C174.297 39.1299 176.958 38.7628 177.325 40.4646Z" fill="#E57D61"/>
<path d="M178.453 38.4467C178.816 39.7443 179.035 41.2933 178.45 42.5314L178.448 42.5325C176.845 46.0941 169.93 44.9026 171.214 40.714C171.673 39.6053 171.238 38.2176 171.537 37.1884C172.71 33.246 177.68 35.0687 178.453 38.4467Z" fill="#F99370"/>
<path d="M173.514 42.2184L174.421 41.4513C174.662 42.0539 174.103 42.6056 173.514 42.2184Z" fill="#F9F8F3"/>
<path d="M173.499 39.828C173.292 39.6689 173.546 39.3474 173.748 39.5119C173.956 39.671 173.702 39.9925 173.499 39.828Z" fill="#C16256"/>
<path d="M171.843 40.279C171.636 40.1198 171.89 39.7984 172.092 39.9628C172.3 40.122 172.046 40.4434 171.843 40.279Z" fill="#C16256"/>
<path d="M173.519 42.2639C173.548 42.2682 174.428 41.4958 174.451 41.4863C174.47 41.4693 174.473 41.4406 174.456 41.4215C174.435 41.3091 173.511 42.1897 173.484 42.1833C173.449 42.2098 173.476 42.2703 173.519 42.2639Z" fill="#C16256"/>
<path d="M175.805 99.5617C175.917 100.4 175.994 100.86 175.994 100.86C179.001 101.861 183.021 102.079 185.7 101.058C183.498 93.4219 184.394 72.6666 185.956 70.1076C185.956 70.1076 191.43 88.4503 196.927 98.7002C197.16 99.133 197.392 99.5511 197.624 99.951C197.624 99.951 203.877 100.023 207.096 94.4649C207.096 94.4649 206.755 94.0617 206.216 93.3318C204.598 91.142 201.196 86.6775 199.849 80.5919C196.848 67.0308 193.349 60.854 190.785 58.4838C187.241 55.2076 179.907 59.1246 177.543 63.8204C174.238 74.2442 174.51 91.0115 175.805 99.5617Z" fill="#1D3F70"/>
<path d="M173.049 41.6423C173.162 41.5913 173.429 41.5192 173.353 41.3696C173.324 41.3388 173.275 41.3367 173.246 41.3654C173.048 41.5468 172.665 41.5818 172.573 41.498C172.54 41.4683 172.573 41.4089 172.607 41.3643C172.905 40.9908 172.904 39.6678 172.666 40.0859C172.667 40.0943 172.744 40.9272 172.485 41.2731C172.219 41.7208 172.719 41.7409 173.049 41.6423Z" fill="#C16256"/>
<path d="M178.453 38.4466C178.816 39.7442 179.035 41.2932 178.45 42.5313L178.448 42.5324C178.674 41.6327 178.326 40.0126 178.326 40.0126L177.776 39.4747C172.958 40.0561 171.791 36.5348 171.791 36.5348C173.395 33.2777 177.728 35.4272 178.453 38.4466Z" fill="#E57D61"/>
<path d="M172.071 36.0171C172.071 36.0171 173.266 39.4928 177.647 39.1246L178.651 37.7603C178.775 34.5764 174.651 31.8921 172.071 36.0171Z" fill="#662948"/>
<path d="M179.501 38.7024C179.858 40.1941 177.971 40.6238 177.647 39.1247C177.29 37.633 179.177 37.2033 179.501 38.7024Z" fill="#F99370"/>
<path d="M179.188 39.1904C179.334 38.7607 178.946 38.2132 178.75 38.1793C178.376 38.0891 177.942 38.4307 178.042 38.5527C178.193 38.6493 178.335 38.2302 178.703 38.3246C179.069 38.3989 178.971 39.1511 179.188 39.1904Z" fill="#C16256"/>
<path d="M178.497 39.391C178.635 39.3178 178.45 38.7799 178.968 38.4743C179.006 38.4541 179.019 38.4075 178.999 38.3714C178.485 38.26 178.252 39.5395 178.497 39.391Z" fill="#C16256"/>
<path d="M179.036 39.6837C179.132 39.8842 178.816 40.0296 178.725 39.8269C178.63 39.6275 178.947 39.4811 179.036 39.6837Z" fill="#F4D4BE"/>
<path d="M190.785 58.4848C187.452 61.2528 182.344 64.1864 177.541 63.8203C177.541 63.8214 176.88 63.4713 176.929 62.4878C177.041 60.229 176.202 58.9909 175.361 57.8302C174.222 56.26 173.076 54.833 174.266 51.2099C174.56 50.324 174.992 48.81 175.346 47.5082C175.542 46.7879 175.741 46.1407 175.855 45.694C176.55 48.4801 177.168 49.3829 177.65 49.0402C178.174 48.6679 178.507 46.8112 178.509 44.2745C178.82 44.2235 179.13 44.2023 179.436 44.2108C183.178 44.3042 186.611 48.6212 189.294 53.7116C189.542 54.1827 189.784 54.6612 190.019 55.1428C190.171 55.3731 190.327 55.6149 190.47 55.8643C190.68 56.2335 190.862 56.6207 190.954 57.0133C191.071 57.5024 191.052 58.001 190.785 58.4848Z" fill="#EB5648"/>
<path d="M196.927 98.7001C197.159 99.1329 197.392 99.551 197.624 99.9509C197.624 99.9509 203.877 100.023 207.096 94.4648C207.096 94.4648 206.755 94.0616 206.216 93.3317C206.216 93.3317 203.396 98.0221 196.927 98.7001Z" fill="#163356"/>
<path d="M174.037 39.0121C174.007 39.0259 173.971 39.0249 173.943 39.0047C173.474 38.6748 173.086 38.7448 173.082 38.7458C173.032 38.7554 172.982 38.7236 172.973 38.6726C172.962 38.6228 172.995 38.5729 173.045 38.5634C173.064 38.5591 173.511 38.4732 174.05 38.853C174.092 38.8827 174.102 38.9411 174.072 38.9824C174.064 38.9952 174.052 39.0047 174.037 39.0121Z" fill="#C16256"/>
<path d="M171.567 39.5267C171.532 39.5436 171.49 39.5373 171.461 39.5086C171.425 39.4726 171.425 39.4131 171.461 39.3771C171.469 39.3696 171.66 39.1808 172.183 38.8678C172.227 38.8413 172.283 38.8561 172.31 38.8996C172.336 38.9442 172.322 39.0004 172.278 39.027C171.779 39.3251 171.595 39.5055 171.593 39.5076C171.585 39.5161 171.577 39.5224 171.567 39.5267Z" fill="#C16256"/>
<path d="M190.921 58.1803C190.921 58.1803 183.844 63.7174 177.326 63.6484C177.326 63.6484 177.271 63.832 177.43 64.1842C177.43 64.1842 183.894 64.86 191.069 58.7564C191.068 58.7575 191.287 58.4158 190.921 58.1803Z" fill="#CE3932"/>
<path d="M184.251 101.464C185.187 101.276 185.7 101.058 185.7 101.058C184.572 94.8977 184.36 89.6534 184.393 85.0839C184.461 75.8664 185.956 70.1075 185.956 70.1075C185.956 70.1075 184.979 69.593 184.598 68.705C184.598 68.705 180.35 86.3698 184.251 101.464Z" fill="#163356"/>
<path d="M175.805 99.5616C175.917 100.4 175.994 100.86 175.994 100.86C179 101.861 183.02 102.079 185.7 101.058C185.63 100.678 185.564 100.3 185.501 99.9266C185.501 99.9266 180.466 101.034 175.805 99.5616Z" fill="#163356"/>
<path d="M190.955 57.0133C190.203 56.0733 188.625 54.4734 185.949 53.3901C181.953 51.7722 180.83 48.3209 180.83 48.3209L189.295 53.7116C189.543 54.1827 189.785 54.6612 190.02 55.1428C190.397 55.7147 190.799 56.3555 190.955 57.0133Z" fill="#CE3932"/>
<path d="M184.23 44.8782C187.218 46.8876 190.186 48.9883 192.776 51.507C194.692 53.5451 196.072 56.0001 197.252 58.5029C197.566 59.619 199.249 61.5553 197.7 62.3192C196.645 62.7032 196.253 61.4598 195.782 60.7861C195.101 59.7156 194.372 58.6578 193.615 57.6499C192.576 56.2908 191.444 54.9424 190.131 53.8963C189.277 53.247 188.237 52.5319 187.341 51.9261C185.61 50.7728 183.694 49.5506 181.933 48.4388C179.588 46.8993 181.85 43.3727 184.23 44.8782Z" fill="#F99370"/>
<path d="M196.165 64.3774C196.518 64.4792 196.519 63.4501 196.731 63.1838C197.075 63.7291 197.263 64.3774 197.268 64.3795C197.348 65.1731 197.385 65.9698 197.388 66.7687C197.382 67.0244 197.783 67.052 197.809 66.7942C197.903 66.0208 197.965 65.241 197.987 64.4612C197.991 64.4601 197.994 64.4601 197.999 64.459C198.254 65.2548 198.468 66.0664 198.611 66.8897C199.47 67.8795 198.672 64.4824 198.625 64.2034C198.627 64.2023 198.628 64.2012 198.63 64.2002C198.997 64.9078 199.278 65.6611 199.477 66.4345C200.434 67.3332 199.35 63.9806 199.206 63.7164C199.208 63.7143 199.21 63.7121 199.212 63.71C199.582 64.2235 199.886 64.7848 200.159 65.3566C201.159 66.0515 199.844 63.3535 199.692 63.118C199.605 62.822 199.125 61.865 198.134 60.7425C197.826 60.3914 196.66 60.9834 196.508 61.4162C196.366 61.8226 196.327 62.4072 196.306 62.6183C196.2 62.9674 195.757 64.2034 196.165 64.3774Z" fill="#F99370"/>
<path d="M197.921 59.9107C197.921 59.9107 197.053 61.2624 195.996 61.0725C195.892 61.0534 195.554 60.9091 195.103 60.6343C194.428 60.2227 193.495 59.5203 192.715 58.5167C192.136 57.7729 191.495 56.8478 190.469 55.8643C189.416 54.8564 188.216 53.2851 186.003 52.2953C182.878 50.899 181.525 49.924 180.408 47.4955C179.964 46.529 178.617 45.8012 178.508 44.2745C178.508 44.2745 178.839 44.1419 179.428 44.0082C180.877 43.6803 183.884 43.3493 187.322 44.998C191.475 46.9884 197.376 54.2304 198.044 58.2366C198.157 58.8944 198.125 59.4651 197.921 59.9107Z" fill="#EB5648"/>
<path d="M179.342 47.9581C179.263 48.9554 179.253 49.6832 178.881 49.8805C178.402 50.1362 177.966 49.7044 177.793 49.5028C177.738 49.4381 177.707 49.3925 177.707 49.3925C177.707 49.3925 177.475 50.8566 176.602 50.2985C175.931 49.8689 175.579 48.5066 175.345 47.5083C175.167 46.7391 175.094 46.1142 175.094 46.1142C175.544 45.7492 175.853 45.694 175.853 45.694C176.549 48.4801 177.167 49.383 177.649 49.0403C178.173 48.6679 178.506 46.8112 178.508 44.2745C178.508 44.2745 178.839 44.1419 179.428 44.0082C179.431 44.0082 179.432 44.0082 179.432 44.0082C179.432 44.0082 179.433 44.0814 179.435 44.2108C179.444 44.7986 179.453 46.5523 179.342 47.9581Z" fill="#CE3932"/>
<path d="M159.017 59.3273C158.47 59.0429 158.12 58.7575 158.061 58.4976C157.814 57.4016 158.371 56.3725 158.371 56.3725C158.551 56.1582 158.942 55.9853 159.461 55.842C159.461 55.842 158.432 57.6414 159.017 59.3273Z" fill="#CE3932"/>
<path d="M197.921 59.9107C197.921 59.9107 197.053 61.2624 195.996 61.0725C195.892 61.0534 195.554 60.9091 195.103 60.6343C195.227 60.5027 196.881 60.1834 198.045 58.2355C198.157 58.8943 198.125 59.4651 197.921 59.9107Z" fill="#CE3932"/>
</g>
<defs>
<clipPath id="clip0_199_264">
<rect width="250" height="192.51" fill="white"/>
</clipPath>
</defs>
</svg>
