<svg width="239" height="276" viewBox="0 0 239 276" fill="none" xmlns="http://www.w3.org/2000/svg">
<path opacity="0.7" d="M108.189 224.56C109.894 223.033 111.126 220.943 111.543 218.507C112.523 212.728 108.618 207.206 102.806 206.168C96.999 205.135 91.4977 208.974 90.5118 214.749C89.944 218.098 91.0247 221.361 93.1586 223.713C92.4231 224.406 91.9 225.324 91.7189 226.397C91.269 229.034 93.0535 231.564 95.7131 232.036C97.4499 232.345 99.1245 231.698 100.203 230.475C100.479 232.984 102.389 235.138 105.008 235.606C108.176 236.174 111.176 234.076 111.714 230.923C112.171 228.205 110.64 225.592 108.189 224.56Z" fill="white"/>
<path opacity="0.7" d="M58.95 182.958C61.0171 180.039 60.3473 175.975 57.4207 173.832C54.4657 171.668 50.3333 172.286 48.1916 175.211C48.0056 175.465 47.8423 175.736 47.7045 176.008C45.6118 175.395 43.28 176.091 41.9281 177.937C40.1999 180.297 40.7322 183.628 43.1168 185.374C43.5731 185.708 44.0662 185.956 44.572 186.127C43.1288 189.797 44.2766 194.142 47.6424 196.606C51.6414 199.534 57.2301 198.699 60.1283 194.741C62.8157 191.071 62.238 186.007 58.95 182.958Z" fill="white"/>
<path opacity="0.7" d="M86.9399 178.193C85.59 181.281 81.556 181.884 79.3047 179.333C78.1718 178.044 77.8719 176.168 78.5494 174.608C79.8993 171.52 83.9334 170.917 86.1846 173.467C87.3175 174.757 87.6231 176.637 86.9399 178.193Z" fill="white"/>
<path opacity="0.7" d="M72.9281 182.522C73.7974 181.338 73.5324 179.667 72.3364 178.788C71.1403 177.91 69.466 178.158 68.5967 179.342C67.7274 180.526 67.9923 182.198 69.1884 183.076C70.3845 183.954 72.0588 183.706 72.9281 182.522Z" fill="white"/>
<path opacity="0.7" d="M79.7129 274.846C79.3629 274.295 78.9808 273.764 78.5764 273.251C78.5258 273.344 78.485 273.435 78.4344 273.528C78.8599 273.953 79.2885 274.397 79.7129 274.846Z" fill="white"/>
<path d="M158.722 126.566C144.021 125.544 135.048 137.979 135.048 137.979C153.526 152.704 138.695 188.746 138.695 188.746C138.695 188.746 139.484 188.04 140.778 186.836C154.889 169.202 166.852 149.32 158.722 126.566Z" fill="url(#paint0_linear_181_32)"/>
<path d="M165.976 155.375C168.656 143.876 163.457 127.986 163.457 127.986C161.781 127.522 160.155 127.242 158.597 127.108C158.48 127.1 158.368 127.097 158.246 127.085C166.38 149.833 154.412 169.721 140.301 187.354C146.362 181.722 163.769 164.853 165.976 155.375Z" fill="url(#paint1_linear_181_32)"/>
<path d="M117.675 97.389C123.473 110.941 114.681 123.5 114.681 123.5C94.6982 110.89 65.5411 136.746 65.5411 136.746C65.5411 136.746 65.9492 135.77 66.6582 134.155C78.6762 115.024 93.5151 97.1865 117.675 97.389Z" fill="url(#paint2_linear_181_32)"/>
<path d="M88.8458 99.5186C98.8225 93.2051 115.536 92.8908 115.536 92.8908C116.526 94.327 117.324 95.7617 117.957 97.1961C118.009 97.3039 118.046 97.4091 118.089 97.5184C93.9386 97.3144 78.6762 115.024 66.6526 134.151C69.9903 126.576 80.6207 104.721 88.8458 99.5186Z" fill="url(#paint3_linear_181_32)"/>
<path d="M189.496 95.2586C178.573 97.67 167.547 93.8557 157.658 86.8238C157.493 86.7027 157.333 86.5857 157.167 86.4646L123.401 133.493L133.561 140.932C135.275 140.686 159.95 136.833 177.686 115.063C182.548 109.081 186.422 102.341 189.496 95.2586Z" fill="url(#paint4_linear_181_32)"/>
<path d="M123.471 133.553L157.258 86.4963C146.704 78.8296 140.022 68.7588 139.553 56.6885C133.029 62.2598 127.219 68.8309 122.986 76.5394C105.67 108.029 113.463 124.195 115.669 127.849L123.467 133.558L123.471 133.553Z" fill="url(#paint5_linear_181_32)"/>
<path d="M157.712 85.8654L198.296 29.3346C194.438 30.1272 162.407 37.1557 139.553 56.6885C140.022 68.7588 147.141 78.2212 157.712 85.8654Z" fill="url(#paint6_linear_181_32)"/>
<path d="M198.686 29.2561C198.686 29.2561 198.554 29.2809 198.295 29.3346L157.146 86.4226C157.311 86.5438 157.774 86.8217 157.943 86.9372C167.832 93.9691 179.169 98.8434 189.592 95.2945C199.611 72.1322 201.181 45.5599 198.686 29.2561Z" fill="url(#paint7_linear_181_32)"/>
<path d="M158.196 86.2204C158.031 86.0993 157.871 85.9823 157.706 85.8612L157.253 86.4922C157.418 86.6133 157.578 86.7302 157.743 86.8514C167.632 93.8833 178.658 97.6975 189.581 95.2861C178.664 97.7017 168.095 93.2508 158.196 86.2204Z" fill="url(#paint8_linear_181_32)"/>
<path d="M158.196 86.2204C158.031 86.0993 157.871 85.9823 157.706 85.8612L157.253 86.4922C157.418 86.6133 157.578 86.7302 157.743 86.8514C167.632 93.8833 178.658 97.6975 189.581 95.2861C178.664 97.7017 168.095 93.2508 158.196 86.2204Z" fill="url(#paint9_linear_181_32)"/>
<path d="M157.258 86.4963L157.711 85.8653C147.141 78.2212 140.022 68.7588 139.553 56.6885C140.022 68.7588 146.7 78.8352 157.258 86.4963Z" fill="url(#paint10_linear_181_32)"/>
<path d="M157.258 86.4963L157.711 85.8653C147.141 78.2212 140.022 68.7588 139.553 56.6885C140.022 68.7588 146.7 78.8352 157.258 86.4963Z" fill="url(#paint11_linear_181_32)"/>
<path d="M115.673 127.843L108.927 137.068L126.754 150.121L133.506 140.9L115.673 127.843Z" fill="url(#paint12_linear_181_32)"/>
<path opacity="0.3" d="M120.51 131.385L117.766 129.376L111.015 138.597L113.759 140.606L120.51 131.385Z" fill="white"/>
<path opacity="0.3" d="M189.784 35.7058C189.784 35.7058 135.314 53.047 119.455 99.2907C119.455 99.2907 115.101 110.875 119.224 128.856L115.321 126.085C115.321 126.085 100.377 99.0882 136.512 63.3789C163.397 36.7965 189.784 35.7058 189.784 35.7058Z" fill="white"/>
<path d="M174.35 96.2692C168.042 105.148 155.647 107.175 146.68 100.8C137.707 94.4214 135.548 82.0504 141.861 73.1762C148.169 64.2978 160.558 62.2658 169.531 68.6449C178.504 75.024 180.663 87.395 174.35 96.2692Z" fill="#6E6E6E"/>
<path d="M173.302 95.8322C167.324 104.249 155.577 106.17 147.08 100.122C138.579 94.0798 136.533 82.3557 142.512 73.9389C148.49 65.5221 160.237 63.6011 168.738 69.6434C177.236 75.6913 179.281 87.4154 173.302 95.8322Z" fill="#D6D2C3"/>
<path opacity="0.4" d="M177.758 82.1713C166.264 86.9664 151.565 86.5523 138.566 88.0419C137.66 83.0072 138.682 77.6493 141.861 73.1762C148.169 64.2978 160.558 62.2659 169.531 68.645C174.208 71.9744 177.021 76.9304 177.758 82.1713Z" fill="url(#paint13_linear_181_32)"/>
<path d="M165.671 73.964C159.579 69.6338 151.16 71.0073 146.876 77.0386C145.778 78.5856 145.064 80.2917 144.703 82.0403C152.471 80.2159 160.156 77.906 167.898 75.9498C167.234 75.2293 166.501 74.5542 165.671 73.964Z" fill="#858585"/>
<path d="M170.927 81.507C165.11 85.0718 152.664 82.4301 144.465 85.8729C144.498 86.2703 144.545 86.6605 144.608 87.0535C153.381 85.9389 162.089 84.2657 171.278 83.4209C171.206 82.778 171.098 82.1353 170.927 81.507Z" fill="#858585"/>
<path d="M171.333 86.2191C171.389 85.6273 171.401 85.0372 171.371 84.4431C162.858 86.9271 153.449 85.8936 144.992 88.6005C145.066 88.8459 145.146 89.0954 145.231 89.3393C153.846 88.4042 162.724 87.6009 171.333 86.2191Z" fill="#858585"/>
<path d="M171.152 87.5184C171.234 87.0837 171.292 86.6577 171.332 86.2191C162.723 87.6009 153.845 88.4042 145.23 89.3393C145.368 89.7261 145.529 90.1044 145.704 90.4755C154.008 90.3967 162.815 89.7848 171.152 87.5184Z" fill="#6E6E6E"/>
<path d="M145.7 90.4812C146.664 92.54 148.154 94.3944 150.143 95.8071C156.235 100.137 164.648 98.7597 168.938 92.7325C170.081 91.1234 170.805 89.3456 171.148 87.524C162.816 89.7849 154.008 90.3967 145.7 90.4812Z" fill="#858585"/>
<path d="M170.927 81.507C170.376 79.4821 169.35 77.5684 167.888 75.9512C160.146 77.9075 152.461 80.2174 144.694 82.0418C144.433 83.3079 144.356 84.5966 144.463 85.8631C152.67 82.4343 165.11 85.0718 170.927 81.507Z" fill="#6E6E6E"/>
<path d="M171.367 84.4487C171.353 84.1088 171.323 83.7663 171.278 83.421C162.089 84.2657 153.381 85.939 144.608 87.0535C144.697 87.5783 144.835 88.0958 144.987 88.6062C153.451 85.9034 162.857 86.9271 171.367 84.4487Z" fill="#6E6E6E"/>
<path d="M96.7858 169.484C96.7858 169.484 90.7775 144.407 111.826 139.2L108.951 137.095C79.0059 142.233 90.1015 177.393 90.1015 177.393L93.6338 177.212L99.2452 169.177L96.7858 169.484Z" fill="#FAB600"/>
<path d="M126.743 150.113L123.582 147.799C123.988 170.032 96.723 174.07 96.723 174.07L100.289 169.057L99.2451 169.177L93.6379 177.207L95.1119 177.133L90.4403 183.705C90.446 183.709 129.431 180.766 126.743 150.113Z" fill="#E8A000"/>
<path d="M117.353 143.238L99.2452 169.177L100.283 169.053L96.7173 174.066C96.7173 174.066 123.978 170.034 123.576 147.794L117.353 143.238Z" fill="#FFBE1D"/>
<path d="M111.83 139.194C90.7816 144.401 96.7899 169.479 96.7899 169.479L99.2452 169.178L117.353 143.238L111.83 139.194Z" fill="#FFD047"/>
<defs>
<linearGradient id="paint0_linear_181_32" x1="130.344" y1="144.601" x2="157.482" y2="163.883" gradientUnits="userSpaceOnUse">
<stop stop-color="#8A2E1E"/>
<stop offset="0.1582" stop-color="#8E3523"/>
<stop offset="0.5549" stop-color="#943F2A"/>
<stop offset="1" stop-color="#96432D"/>
</linearGradient>
<linearGradient id="paint1_linear_181_32" x1="141.675" y1="150.418" x2="161.33" y2="164.383" gradientUnits="userSpaceOnUse">
<stop stop-color="#D23013"/>
<stop offset="0.1354" stop-color="#BC3318"/>
<stop offset="0.3346" stop-color="#A3371E"/>
<stop offset="0.5411" stop-color="#903923"/>
<stop offset="0.7575" stop-color="#863B25"/>
<stop offset="1" stop-color="#823B26"/>
</linearGradient>
<linearGradient id="paint2_linear_181_32" x1="109.972" y1="130.124" x2="82.8274" y2="110.837" gradientUnits="userSpaceOnUse">
<stop stop-color="#98311F"/>
<stop offset="0.249" stop-color="#A53D28"/>
<stop offset="0.6029" stop-color="#AF4730"/>
<stop offset="1" stop-color="#B34A33"/>
</linearGradient>
<linearGradient id="paint3_linear_181_32" x1="101.481" y1="120.901" x2="81.7515" y2="106.884" gradientUnits="userSpaceOnUse">
<stop stop-color="#7B2C1E"/>
<stop offset="0.0195" stop-color="#7C2D1F"/>
<stop offset="0.3214" stop-color="#8F3727"/>
<stop offset="0.6389" stop-color="#993D2C"/>
<stop offset="0.9947" stop-color="#9D3F2E"/>
</linearGradient>
<linearGradient id="paint4_linear_181_32" x1="170.919" y1="91.2277" x2="133.173" y2="153.491" gradientUnits="userSpaceOnUse">
<stop stop-color="#9D9EA3"/>
<stop offset="1" stop-color="#D1D1D6"/>
</linearGradient>
<linearGradient id="paint5_linear_181_32" x1="144.072" y1="74.9254" x2="106.327" y2="137.186" gradientUnits="userSpaceOnUse">
<stop stop-color="#A9A9AF"/>
<stop offset="1" stop-color="#E8E8ED"/>
</linearGradient>
<linearGradient id="paint6_linear_181_32" x1="152.028" y1="39.132" x2="203.515" y2="75.7141" gradientUnits="userSpaceOnUse">
<stop stop-color="#98311F"/>
<stop offset="0.249" stop-color="#A53D28"/>
<stop offset="0.6029" stop-color="#AF4730"/>
<stop offset="1" stop-color="#B34A33"/>
</linearGradient>
<linearGradient id="paint7_linear_181_32" x1="151.66" y1="39.1695" x2="203.362" y2="75.9049" gradientUnits="userSpaceOnUse">
<stop stop-color="#8A2E1E"/>
<stop offset="0.1582" stop-color="#8E3523"/>
<stop offset="0.5549" stop-color="#943F2A"/>
<stop offset="1" stop-color="#96432D"/>
</linearGradient>
<linearGradient id="paint8_linear_181_32" x1="172.616" y1="92.2278" x2="134.863" y2="154.502" gradientUnits="userSpaceOnUse">
<stop stop-color="#949499"/>
<stop offset="1" stop-color="#D3D3D7"/>
</linearGradient>
<linearGradient id="paint9_linear_181_32" x1="134.77" y1="63.4163" x2="186.248" y2="99.9921" gradientUnits="userSpaceOnUse">
<stop stop-color="#801A1E"/>
<stop offset="0.0734" stop-color="#821D20"/>
<stop offset="0.51" stop-color="#8D2727"/>
<stop offset="1" stop-color="#902B29"/>
</linearGradient>
<linearGradient id="paint10_linear_181_32" x1="145.797" y1="75.9702" x2="108.056" y2="138.225" gradientUnits="userSpaceOnUse">
<stop stop-color="#949499"/>
<stop offset="1" stop-color="#D3D3D7"/>
</linearGradient>
<linearGradient id="paint11_linear_181_32" x1="135.489" y1="62.4098" x2="186.962" y2="98.9823" gradientUnits="userSpaceOnUse">
<stop stop-color="#801A1E"/>
<stop offset="0.0734" stop-color="#821D20"/>
<stop offset="0.51" stop-color="#8D2727"/>
<stop offset="1" stop-color="#902B29"/>
</linearGradient>
<linearGradient id="paint12_linear_181_32" x1="112.146" y1="132.538" x2="130.347" y2="145.469" gradientUnits="userSpaceOnUse">
<stop stop-color="#332A1D"/>
<stop offset="0.1918" stop-color="#463B2D"/>
<stop offset="0.4419" stop-color="#594B3D"/>
<stop offset="0.7051" stop-color="#635446"/>
<stop offset="1" stop-color="#675749"/>
</linearGradient>
<linearGradient id="paint13_linear_181_32" x1="161.446" y1="69.3635" x2="159.953" y2="74.7084" gradientUnits="userSpaceOnUse">
<stop stop-color="white"/>
<stop offset="0.2258" stop-color="#F0EEE6"/>
<stop offset="0.4654" stop-color="#E4E1D4"/>
<stop offset="0.7175" stop-color="#DEDAC9"/>
<stop offset="1" stop-color="#DBD7C6"/>
</linearGradient>
</defs>
</svg>
