<svg width="230" height="181" viewBox="0 0 230 181" fill="none" xmlns="http://www.w3.org/2000/svg">
<g clip-path="url(#clip0_197_24)">
<path d="M26.526 109.441C26.57 109.445 26.6179 109.445 26.6618 109.445C27.4727 109.445 28.1637 108.825 28.2316 108.001C28.3075 107.133 27.6604 106.369 26.7936 106.293L1.70942 104.157C0.842656 104.085 0.0797442 104.729 0.00385248 105.597C-0.0720393 106.465 0.575038 107.229 1.4418 107.305L26.526 109.441Z" fill="#FECC86"/>
<path d="M38.7448 69.1538C39.0164 69.3418 39.328 69.4298 39.6355 69.4298C40.1388 69.4298 40.6341 69.1898 40.9377 68.7418C41.429 68.0218 41.2452 67.0379 40.5263 66.5459L19.7519 52.3103C19.0329 51.8183 18.0503 52.0023 17.559 52.7223C17.0677 53.4423 17.2515 54.4263 17.9704 54.9182L38.7448 69.1538Z" fill="#FECC86"/>
<path d="M77.1858 40.7227C77.3815 40.7227 77.5853 40.6867 77.777 40.6067C78.5838 40.2787 78.9713 39.3587 78.6437 38.5508L69.1693 15.1955C68.8417 14.3875 67.919 13.9995 67.1162 14.3275C66.3093 14.6555 65.9219 15.5755 66.2494 16.3835L75.7239 39.7387C75.9716 40.3507 76.5627 40.7227 77.1858 40.7227Z" fill="#FECC86"/>
<path d="M203.406 113.992L228.526 112.332C229.397 112.276 230.052 111.524 229.996 110.652C229.94 109.781 229.181 109.125 228.318 109.181L203.198 110.84C202.327 110.896 201.672 111.648 201.728 112.52C201.784 113.356 202.475 113.996 203.302 113.996C203.338 113.996 203.37 113.996 203.406 113.992Z" fill="#FECC86"/>
<path d="M191.087 73.7417C191.383 73.7417 191.687 73.6577 191.95 73.4817L212.992 59.6421C213.719 59.1621 213.923 58.1822 213.443 57.4542C212.964 56.7262 211.986 56.5222 211.259 57.0022L190.217 70.8417C189.49 71.3217 189.286 72.3017 189.765 73.0297C190.069 73.4897 190.572 73.7417 191.087 73.7417Z" fill="#FECC86"/>
<path d="M158.945 40.6307C159.556 40.6307 160.14 40.2707 160.395 39.6747L170.309 16.5035C170.653 15.7035 170.281 14.7715 169.482 14.4315C168.683 14.0876 167.753 14.4595 167.409 15.2595L157.495 38.4308C157.152 39.2308 157.523 40.1627 158.322 40.5027C158.53 40.5907 158.738 40.6307 158.945 40.6307Z" fill="#FECC86"/>
<path d="M118.511 28.3671C119.37 28.3671 120.073 27.6751 120.089 26.8111L120.476 1.60395C120.488 0.731977 119.793 0.0119996 118.922 0C118.914 0 118.906 0 118.898 0C118.04 0 117.337 0.691978 117.321 1.55595L116.933 26.7632C116.921 27.6351 117.616 28.3551 118.487 28.3671C118.495 28.3671 118.503 28.3671 118.511 28.3671Z" fill="#FECC86"/>
<path d="M204.892 149.207C204.852 149.191 204.808 149.175 204.764 149.159C203.993 148.907 203.146 149.287 202.827 150.051C202.487 150.855 202.867 151.783 203.669 152.119L226.872 161.895C227.675 162.231 228.602 161.855 228.937 161.051C229.277 160.247 228.897 159.319 228.095 158.983L204.892 149.207Z" fill="#FECC86"/>
<path d="M25.6434 145.415L1.66957 153.103C0.838758 153.371 0.383408 154.259 0.647032 155.091C0.91465 155.923 1.80538 156.379 2.62821 156.115L26.602 148.423C27.4328 148.155 27.8882 147.267 27.6246 146.435C27.3689 145.639 26.5421 145.183 25.7432 145.383C25.7113 145.395 25.6753 145.403 25.6434 145.415Z" fill="#FECC86"/>
<path d="M115 55.6622L135.215 96.6809L180.419 103.257L147.709 135.188L155.43 180.27L115 158.983L74.5697 180.27L82.2907 135.188L49.5813 103.257L94.7848 96.6809L115 55.6622Z" fill="#FEC786"/>
<g opacity="0.5">
<path d="M180.419 103.257L152.315 99.1688C135.85 123.08 118.359 141.179 79.0871 153.887L74.5696 180.27L115 158.987L155.43 180.27L147.709 135.188L180.419 103.257Z" fill="#FECC86"/>
</g>
<g opacity="0.3">
<path d="M110.331 86.7293C108.194 91.6931 105.29 95.209 103.84 94.585C102.39 93.961 102.949 89.4292 105.082 84.4653C107.219 79.5015 110.123 75.9856 111.573 76.6096C113.027 77.2336 112.468 81.7654 110.331 86.7293Z" fill="white"/>
</g>
</g>
<defs>
<clipPath id="clip0_197_24">
<rect width="230" height="180.27" fill="white"/>
</clipPath>
</defs>
</svg>
