<svg width="195" height="231" viewBox="0 0 195 231" fill="none" xmlns="http://www.w3.org/2000/svg">
<g clip-path="url(#clip0_191_10)">
<path d="M98.5479 3.93399C95.6562 1.48331 91.3056 1.26834 86.6151 2.91072C81.9246 4.54881 76.8856 8.04425 72.6082 13.0058C64.0663 22.9203 61.8243 34.9458 67.5992 39.8687L70.8482 42.6762C65.0733 37.7576 67.3152 25.7278 75.8614 15.8133C80.1345 10.8561 85.1736 7.36064 89.8684 5.72255C94.5632 4.08017 98.9094 4.29514 101.801 6.74582L98.5479 3.93399Z" fill="#85CCC6"/>
<path d="M89.8597 5.71825C94.5545 4.07587 98.9007 4.29084 101.792 6.74152C107.567 11.6515 105.325 23.6813 96.7792 33.6044C92.5019 38.5659 87.4671 42.0571 82.7723 43.6995C78.0818 45.3375 73.7312 45.1269 70.8395 42.6719C65.0646 37.7533 67.3066 25.7235 75.8527 15.809C80.1301 10.8518 85.1692 7.35634 89.8597 5.71825Z" fill="#4C7571"/>
<path d="M74.6737 13.8657C79.9881 7.70029 86.2493 3.35356 92.0888 1.31133C97.9239 -0.726598 103.329 -0.460033 106.918 2.59686L160.006 48.7513C156.413 45.6944 151.008 45.4235 145.173 47.4658C139.338 49.508 133.073 53.8504 127.762 60.0201C117.133 72.3595 114.345 87.3043 121.531 93.4138L68.4469 47.2637C61.2563 41.1499 64.0447 26.2008 74.6737 13.8657Z" fill="#185D7C"/>
<path d="M145.173 47.4658C139.338 49.508 133.073 53.8504 127.762 60.0201C117.133 72.3595 114.345 87.3043 121.531 93.4138C125.12 96.4664 130.529 96.733 136.364 94.695C142.2 92.6528 148.465 88.3104 153.775 82.1493C164.404 69.8099 167.193 54.8651 160.006 48.7556C156.413 45.6944 151.008 45.4235 145.173 47.4658Z" fill="#144F69"/>
<path d="M145.591 55.2821C150.187 53.6741 153.982 54.1643 156.396 56.2495L185.309 81.5861C182.895 79.5008 179.1 79.0107 174.504 80.6144C165.355 83.8132 156.517 94.0802 154.752 103.543C153.874 108.243 154.907 111.863 157.291 113.922L128.378 88.5855C125.994 86.5218 124.961 82.906 125.839 78.2067C127.603 68.7479 136.442 58.4766 145.591 55.2821Z" fill="#133D63"/>
<path d="M142.6 56.5935C139.725 58.0811 136.954 60.1964 134.514 62.6986L163.182 88.2846C165.588 85.7737 168.324 83.6283 171.178 82.102L142.6 56.5935Z" fill="#689BC1"/>
<path d="M86.5549 3.89959C82.441 6.25998 78.3358 9.61784 74.678 13.8657C74.0842 14.5579 73.5248 15.2544 72.9783 15.9638L126.433 61.6668C126.867 61.1164 127.302 60.5618 127.767 60.0201C131.579 55.5917 135.887 52.1177 140.177 49.7488L86.5549 3.89959Z" fill="#689BC1"/>
<path opacity="0.2" d="M160.609 183.216C160.613 183.22 160.618 183.22 160.618 183.225C160.609 183.216 160.6 183.207 160.592 183.199C160.587 183.195 160.587 183.195 160.583 183.19C153.922 177.429 154.158 177.532 153.281 177.042C152.317 176.505 151.28 176.217 150.199 176.139L140.014 167.214C140.724 162.97 139.902 159.29 137.359 157.127L98.7373 123.549C96.1253 121.326 92.1922 121.132 87.9492 122.616C87.5275 122.762 87.1015 122.934 86.6711 123.114C85.7976 123.235 84.8939 123.454 83.9644 123.776C80.552 124.967 76.8856 127.513 73.7744 131.12C71.171 134.138 69.3765 137.427 68.4729 140.497L54.0614 145.532L52.4176 144.1C49.8055 141.877 45.8724 141.684 41.6294 143.167C41.2809 143.287 40.928 143.425 40.5752 143.571C39.4778 143.644 38.316 143.893 37.1197 144.311C33.7072 145.501 30.0409 148.047 26.9297 151.654C21.8691 157.527 19.8466 164.423 21.5421 168.714C21.413 172.016 22.3381 174.819 24.4295 176.599L63.0508 210.174C65.508 212.259 69.1313 212.555 73.0816 211.352L84.4636 221.326C84.8423 222.328 85.4447 223.227 86.3097 223.975L92.7172 229.512C92.6612 229.461 92.6053 229.409 92.5493 229.358C94.3997 231.095 97.3947 231.537 101.052 230.26C108.097 227.801 114.905 219.886 116.269 212.594C116.944 208.961 116.144 206.166 114.298 204.576C114.302 204.58 114.306 204.58 114.306 204.584C114.298 204.576 114.289 204.567 114.276 204.558L114.272 204.554C110.898 201.635 109.293 200.225 108.42 199.477C110.012 198.827 111.535 198.092 112.959 197.267C116.079 195.452 118.45 193.376 120.103 191.157L131.209 200.891C131.567 201.523 132.031 202.104 132.621 202.611L139.028 208.149C138.977 208.106 138.929 208.054 138.878 208.011C140.728 209.735 143.719 210.169 147.364 208.897C154.408 206.437 161.216 198.522 162.58 191.23C163.255 187.597 162.455 184.803 160.609 183.216ZM157.597 181.849C158.061 181.926 158.509 182.047 158.931 182.214C158.513 182.051 158.07 181.931 157.597 181.849Z" fill="black"/>
<path d="M105.493 167.252L105.278 175.877C105.27 180.013 102.554 184.128 97.1366 187.275C86.2065 193.625 68.4471 193.625 57.4696 187.283C51.9357 184.097 49.1731 179.901 49.1817 175.718L49.3968 167.093C49.3796 171.277 52.1509 175.473 57.6848 178.659C68.6623 185 86.4216 185 97.3518 178.65C102.77 175.503 105.481 171.388 105.493 167.252Z" fill="#4E4E4E"/>
<path d="M97.214 155.708C108.196 162.037 108.252 172.313 97.3517 178.65C86.4215 185 68.6622 185 57.6847 178.659C46.6857 172.313 46.6254 162.033 57.5513 155.687C68.4599 149.358 86.215 149.358 97.214 155.708Z" fill="#3D3B3B"/>
<path d="M90.0276 141.009L89.9329 165.064C89.9286 166.93 88.7065 168.783 86.2623 170.202C81.3351 173.065 73.3311 173.065 68.3824 170.206C65.8866 168.77 64.6429 166.878 64.6472 164.991L64.7462 140.935C64.7376 142.823 65.9855 144.71 68.4814 146.151C73.4301 149.01 81.4341 149.01 86.3612 146.146C88.8012 144.728 90.0233 142.874 90.0276 141.009Z" fill="#4E4E4E"/>
<path d="M86.2968 135.806C91.2455 138.657 91.2713 143.292 86.357 146.146C81.4299 149.01 73.4259 149.01 68.4772 146.151C63.5199 143.287 63.4941 138.657 68.417 135.793C73.3355 132.943 81.3395 132.943 86.2968 135.806Z" fill="#3D3B3B"/>
<path d="M85.4275 58.6357L85.35 137.315C85.3457 138.502 84.5668 139.684 83.0091 140.592C79.872 142.41 74.7684 142.414 71.6142 140.596C70.0263 139.676 69.2345 138.476 69.2388 137.277L69.3119 58.597C69.3076 59.7965 70.1037 60.9961 71.6873 61.9162C74.8459 63.7348 79.9409 63.7305 83.0779 61.9119C84.6443 61.0047 85.4232 59.8223 85.4275 58.6357Z" fill="#5B5B5B"/>
<path d="M83.0479 55.3165C86.2064 57.1395 86.2237 60.0846 83.0823 61.9119C79.9453 63.7305 74.8503 63.7348 71.6917 61.9162C68.5375 60.0932 68.5245 57.1438 71.6616 55.3165C74.7986 53.4979 79.8893 53.4979 83.0479 55.3165Z" fill="#4E4E4E"/>
<path d="M174.504 80.6184C165.356 83.8172 156.517 94.0843 154.752 103.547C152.988 113.006 158.961 118.092 168.11 114.894C177.25 111.703 186.084 101.441 187.848 91.9775C189.617 82.5145 183.644 77.424 174.504 80.6184Z" fill="#0B243A"/>
<path d="M181.889 76.1169C183.102 76.7919 182.771 76.6458 191.98 84.6126C183.309 77.0843 162.649 91.6422 159.606 107.873C158.677 112.856 159.774 116.695 162.3 118.879L153.496 111.265C141.111 100.551 167.555 68.077 181.889 76.1169Z" fill="#092B3A"/>
<path d="M180.533 83.5851C170.838 86.973 161.478 97.8463 159.607 107.873C157.735 117.899 164.065 123.29 173.756 119.902C183.438 116.519 192.797 105.645 194.669 95.6192C196.541 85.5929 190.215 80.2014 180.533 83.5851Z" fill="#2D4F5B"/>
<path d="M180.025 88.4692C172.761 91.0059 165.734 99.1619 164.331 106.686C162.928 114.21 167.679 118.247 174.943 115.71C182.207 113.169 189.221 105.018 190.624 97.498C192.027 89.974 187.289 85.9282 180.025 88.4692Z" fill="#6EAFA4"/>
<path d="M164.331 106.686C165.463 100.611 170.27 94.1187 175.907 90.5114C176.527 90.2148 177.15 89.9353 177.779 89.716C185.043 87.1751 189.78 91.2209 188.378 98.7406C187.246 104.82 182.443 111.308 176.815 114.915C176.195 115.212 175.576 115.487 174.947 115.706C167.679 118.247 162.928 114.21 164.331 106.686Z" fill="#9CDBD2"/>
<g opacity="0.42">
<path d="M176.841 92.4247C173.015 93.7618 169.319 98.0526 168.583 102.008C167.847 105.964 170.347 108.092 174.168 106.755C177.99 105.418 181.682 101.131 182.418 97.1713C183.153 93.2201 180.662 91.0919 176.841 92.4247Z" fill="white"/>
</g>
<path d="M34.1546 32.1598C31.2629 29.7091 26.9123 29.4941 22.2218 31.1365C17.527 32.7746 12.4923 36.27 8.21487 41.2316C-0.327008 51.1461 -2.56898 63.1716 3.20593 68.0944L6.45485 70.902C0.679944 65.9834 2.92192 53.9536 11.4638 44.0391C15.7369 39.0819 20.7759 35.5864 25.4707 33.9483C30.1655 32.306 34.5118 32.5209 37.4035 34.9716L34.1546 32.1598Z" fill="#85CCC6"/>
<path d="M25.4707 33.944C30.1656 32.3017 34.5118 32.5166 37.4036 34.9673C43.1785 39.8773 40.9365 51.9071 32.3903 61.8302C28.1129 66.7917 23.0782 70.2829 18.3834 71.9252C13.6929 73.5633 9.34232 73.3527 6.45056 70.8977C0.675648 65.9791 2.91762 53.9493 11.4595 44.0348C15.7369 39.0776 20.7759 35.5821 25.4707 33.944Z" fill="#4C7571"/>
<path d="M11.0077 42.113C16.3178 35.9476 22.5833 31.6008 28.4227 29.5586C34.2579 27.5207 39.6627 27.7872 43.2516 30.8441L96.3403 76.9986C92.7471 73.9417 87.3423 73.6751 81.5072 75.713C75.672 77.7553 69.4065 82.102 64.0964 88.2674C53.4674 100.602 50.679 115.552 57.8653 121.661L4.78091 75.511C-2.40976 69.4015 0.378722 54.4523 11.0077 42.113Z" fill="#185D7C"/>
<path d="M81.5071 75.713C75.672 77.7553 69.4065 82.102 64.0963 88.2674C53.4674 100.602 50.6789 115.552 57.8653 121.661C61.4585 124.714 66.8633 124.98 72.6985 122.938C78.5336 120.9 84.7991 116.553 90.1093 110.392C100.738 98.0529 103.527 83.1081 96.3403 76.9986C92.7471 73.9417 87.3423 73.6751 81.5071 75.713Z" fill="#144F69"/>
<path d="M82.0536 84.0066C86.6494 82.3987 90.4448 82.8888 92.8589 84.974L121.772 110.311C119.358 108.225 115.563 107.735 110.967 109.339C101.818 112.538 92.9794 122.805 91.2151 132.268C90.3373 136.967 91.37 140.583 93.754 142.647L64.8407 117.31C62.4568 115.246 61.424 111.631 62.3018 106.931C64.0662 97.4682 72.9093 87.2011 82.0536 84.0066Z" fill="#133D63"/>
<path d="M79.2524 85.2234C76.3606 86.6895 73.5764 88.7876 71.115 91.2813L99.7787 116.867C102.206 114.361 104.96 112.237 107.826 110.728L79.2524 85.2234Z" fill="#689BC1"/>
<path d="M23.6979 31.6825C19.3172 34.0558 14.9064 37.59 11.0077 42.1173C10.6075 42.5816 10.2417 43.0545 9.86304 43.5275L63.3175 89.2304C63.58 88.9123 63.8253 88.5855 64.0964 88.2717C68.1586 83.5552 72.776 79.9136 77.3331 77.5446L23.6979 31.6825Z" fill="#689BC1"/>
<path d="M110.971 109.339C101.823 112.538 92.9838 122.805 91.2195 132.268C89.4552 141.727 95.4281 146.813 104.577 143.614C113.717 140.42 122.551 130.161 124.316 120.698C126.08 111.239 120.107 106.149 110.971 109.339Z" fill="#0B243A"/>
<path d="M118.231 105.487C119.444 106.162 119.113 106.015 128.322 113.982C119.651 106.454 98.9912 121.012 95.9488 137.242C95.0193 142.225 96.1166 146.065 98.6426 148.249L89.8382 140.634C77.4536 129.92 103.897 97.4467 118.231 105.487Z" fill="#092B3A"/>
<path d="M116.875 112.955C107.18 116.343 97.8208 127.216 95.9489 137.242C94.0813 147.269 100.407 152.66 110.098 149.272C119.78 145.888 129.14 135.015 131.011 124.989C132.888 114.963 126.558 109.571 116.875 112.955Z" fill="#2D4F5B"/>
<path d="M116.69 117.899C109.426 120.436 102.399 128.592 100.996 136.116C99.5934 143.64 104.344 147.677 111.608 145.14C118.872 142.599 125.886 134.448 127.289 126.928C128.692 119.404 123.954 115.358 116.69 117.899Z" fill="#6EAFA4"/>
<path d="M100.996 136.116C102.128 130.036 106.935 123.549 112.572 119.941C113.192 119.645 113.816 119.365 114.444 119.146C121.708 116.605 126.445 120.651 125.043 128.17C123.911 134.25 119.108 140.738 113.476 144.345C112.856 144.642 112.236 144.917 111.608 145.136C104.344 147.681 99.5934 143.64 100.996 136.116Z" fill="#9CDBD2"/>
<g opacity="0.42">
<path d="M112.959 122.981C109.138 124.318 105.437 128.609 104.701 132.564C103.966 136.52 106.466 138.648 110.287 137.311C114.108 135.974 117.8 131.687 118.536 127.728C119.272 123.772 116.781 121.644 112.959 122.981Z" fill="white"/>
</g>
<path d="M121.097 26.1148L119.715 33.527C114.276 36.4592 108.828 40.7672 104.013 46.2318C99.8088 50.9913 96.7578 56.0087 94.6234 60.9402L81.731 65.4589C76.4294 60.9961 75.0094 59.5042 72.1219 57.2212C68.7654 54.5426 64.4966 53.7773 59.3801 54.5641L60.7528 47.2078L121.097 26.1148Z" fill="#0D3344"/>
<path d="M121.097 26.1148L104.861 12.0728L44.5126 33.1615L43.1399 40.5179L59.3759 54.5641L60.7486 47.2078L121.097 26.1148Z" fill="#55A9BC"/>
</g>
<defs>
<clipPath id="clip0_191_10">
<rect width="195" height="231" fill="white"/>
</clipPath>
</defs>
</svg>
